<svg xmlns="http://www.w3.org/2000/svg" xmlns:xlink="http://www.w3.org/1999/xlink" width="80.429" height="36.001" viewBox="0 0 80.429 36.001">
  <defs>
    <clipPath id="clip-path">
      <rect id="Rectangle_951" data-name="Rectangle 951" width="80.429" height="36.001" fill="none"/>
    </clipPath>
  </defs>
  <g id="Group_1944" data-name="Group 1944" transform="translate(0 -6.001)">
    <g id="Group_1755" data-name="Group 1755" transform="translate(0 6.001)" clip-path="url(#clip-path)">
      <path id="Path_726" data-name="Path 726" d="M40.588,29.278H10.441a9.23,9.23,0,0,1-.058-2.014c.083-2.607.006-5.217.035-7.824a8.3,8.3,0,0,1,.287-1.621,2.461,2.461,0,0,1,1.264-.9c1.1-.332,2.21-.531,3.307-.875a4.658,4.658,0,0,0,2.377-1.133c0-.408,0-.813.008-1.218-.8-.1-1.713.332-2.395-.49.085-.752.794-.684,1.147-1.089A21.838,21.838,0,0,0,19.76,8.979,11.936,11.936,0,0,0,19.8,6.947,6.313,6.313,0,0,0,15.8,5.438c-1.57.162-3.133.458-4.7.72.144-.708.233-1.441.378-2.149.161-.631.673-1.083.6-1.814C10.93,1.372,9.328.2,8.235,1.786a15.261,15.261,0,0,0-.5,5.343c-.924.411-1.852.807-2.776,1.222C4.587,7.766,4.188,7,3.581,7.138c-.581-.179-1,.534-1.372,1.083-.637.957-.709,2.381-1,3.6-.043,1.154-.045,2.313-.008,3.467a13.28,13.28,0,0,0,1.13,3.952c.4.619,1.019.32,1.517.231.106-2.116-.053-4.239.041-6.356a3.371,3.371,0,0,1,.784-1.73A6.083,6.083,0,0,1,7.729,9.839c-.007,1.908.053,3.823-.019,5.728-1.021.335-2.23.851-3.2-.047a4.431,4.431,0,0,0-.4,3,3.686,3.686,0,0,0,1.419.825,10.575,10.575,0,0,0,2.437-1.036c.014,2.947-.01,5.895.014,8.84.034.7,0,1.415-.026,2.126H1v6.3H80.006v-6.3ZM10.882,15.553a23.167,23.167,0,0,1,2.457-1.947c.413-.461.757.241,1.063.578-.945,1.26-2.331,1.239-3.52,1.369m3.034-7.722a3.226,3.226,0,0,1,2.408.343,5.913,5.913,0,0,1-2.654,3.494,7.054,7.054,0,0,0-1.306-.388c.25.452.484.928.713,1.407-.767.881-1.44,2.029-2.434,2.311,0-2.041.006-4.084,0-6.125,1.007-.831,2.176-.755,3.274-1.042" transform="translate(-0.288 -0.289)" fill="#fff"/>
      <path id="Path_727" data-name="Path 727" d="M40.588,29.278H10.441a9.23,9.23,0,0,1-.058-2.014c.083-2.607.006-5.217.035-7.824a8.3,8.3,0,0,1,.287-1.621,2.461,2.461,0,0,1,1.264-.9c1.1-.332,2.21-.531,3.307-.875a4.658,4.658,0,0,0,2.377-1.133c0-.408,0-.813.008-1.218-.8-.1-1.713.332-2.395-.49.085-.752.794-.684,1.147-1.089A21.838,21.838,0,0,0,19.76,8.979,11.936,11.936,0,0,0,19.8,6.947,6.313,6.313,0,0,0,15.8,5.438c-1.57.162-3.133.458-4.7.72.144-.708.233-1.441.378-2.149.161-.631.673-1.083.6-1.814C10.93,1.372,9.328.2,8.235,1.786a15.261,15.261,0,0,0-.5,5.343c-.924.411-1.852.807-2.776,1.222C4.587,7.766,4.188,7,3.581,7.138c-.581-.179-1,.534-1.372,1.083-.637.957-.709,2.381-1,3.6-.043,1.154-.045,2.313-.008,3.467a13.28,13.28,0,0,0,1.13,3.952c.4.619,1.019.32,1.517.231.106-2.116-.053-4.239.041-6.356a3.371,3.371,0,0,1,.784-1.73A6.083,6.083,0,0,1,7.729,9.839c-.007,1.908.053,3.823-.019,5.728-1.021.335-2.23.851-3.2-.047a4.431,4.431,0,0,0-.4,3,3.686,3.686,0,0,0,1.419.825,10.575,10.575,0,0,0,2.437-1.036c.014,2.947-.01,5.895.014,8.84.034.7,0,1.415-.026,2.126H1v6.3H80.006v-6.3ZM10.882,15.553a23.167,23.167,0,0,1,2.457-1.947c.413-.461.757.241,1.063.578C13.456,15.444,12.071,15.423,10.882,15.553Zm3.034-7.722a3.226,3.226,0,0,1,2.408.343,5.913,5.913,0,0,1-2.654,3.494,7.054,7.054,0,0,0-1.306-.388c.25.452.484.928.713,1.407-.767.881-1.44,2.029-2.434,2.311,0-2.041.006-4.084,0-6.125C11.648,8.042,12.817,8.118,13.916,7.831Z" transform="translate(-0.288 -0.289)" fill="none" stroke="#fff" stroke-width="2"/>
      <path id="Path_728" data-name="Path 728" d="M44.3,6.419a15.528,15.528,0,0,0,4.383-1.674c1.168-.655,2.406.455,3.581-.112.335-.238.651-.528.976-.8.7.525.934,1.7,1.275,2.669.449,1.256.934,2.489,1.328,3.79.058,2.6.011,5.212.021,7.813a13.364,13.364,0,0,1-1.026,4.826c-.628.805-1.474.218-2.191.147.238.446.529.828.744,1.3a7.363,7.363,0,0,0,.5,2.044,1.46,1.46,0,0,0,1.431.305c.49-.2.579-.987.808-1.562.31-.972,1.149-1.148,1.478-2.1a11.275,11.275,0,0,0,.31-2.2,13.882,13.882,0,0,0-.1-5.115c-.052-2.037.016-4.078-.021-6.118-.132-1.189-.851-1.979-1.035-3.148a28.448,28.448,0,0,0-.959-3.8,2.619,2.619,0,0,0-3.315-.828c-.886.567-1.85.249-2.778.367-1.217.264-2.455.268-3.664.626-1.4.455-2.607,1.674-3.949,2.352-.011.246-.037.74-.048.983a3.58,3.58,0,0,0,2.249.229" transform="translate(-12.117 -0.453)" fill="#fff"/>
      <path id="Path_729" data-name="Path 729" d="M44.3,6.419a15.528,15.528,0,0,0,4.383-1.674c1.168-.655,2.406.455,3.581-.112.335-.238.651-.528.976-.8.7.525.934,1.7,1.275,2.669.449,1.256.934,2.489,1.328,3.79.058,2.6.011,5.212.021,7.813a13.364,13.364,0,0,1-1.026,4.826c-.628.805-1.474.218-2.191.147.238.446.529.828.744,1.3a7.363,7.363,0,0,0,.5,2.044,1.46,1.46,0,0,0,1.431.305c.49-.2.579-.987.808-1.562.31-.972,1.149-1.148,1.478-2.1a11.275,11.275,0,0,0,.31-2.2,13.882,13.882,0,0,0-.1-5.115c-.052-2.037.016-4.078-.021-6.118-.132-1.189-.851-1.979-1.035-3.148a28.448,28.448,0,0,0-.959-3.8,2.619,2.619,0,0,0-3.315-.828c-.886.567-1.85.249-2.778.367-1.217.264-2.455.268-3.664.626-1.4.455-2.607,1.674-3.949,2.352-.011.246-.037.74-.048.983A3.58,3.58,0,0,0,44.3,6.419Z" transform="translate(-12.117 -0.453)" fill="none" stroke="#fff" stroke-width="2"/>
      <path id="Path_730" data-name="Path 730" d="M70.749,19.093a14.7,14.7,0,0,1,2.182-2.41,29.359,29.359,0,0,1,3.637-2.167c.593-.311,1.273.1,1.837-.4.228-.185.447-.4.676-.587-.085.42-.183.834-.282,1.248A2.217,2.217,0,0,0,77.318,16.4a3.884,3.884,0,0,0,1.3.643c-.005.149-.016.449-.023.6a17.95,17.95,0,0,1-5.29,3.712,8.476,8.476,0,0,0,.048,1.462A3.619,3.619,0,0,0,75.4,24.072a9.3,9.3,0,0,0,3.7-1.523,13.524,13.524,0,0,1-.3,3.432,1.6,1.6,0,0,0,2.266.972c.609-.247.443-1.313.4-2.024a18.867,18.867,0,0,1-.185-4.2,10.968,10.968,0,0,0,2.244-1.209,3.074,3.074,0,0,0,.429-1.721c-.3-.666-.895-.619-1.365-.728.058-.478.1-.963.118-1.45a2.652,2.652,0,0,0-1.346-.443c.488-1.92,1.859-2.6,2.811-3.855.01-.243.025-.734.035-.98-.309-.449-.617-1.054-1.093-1.028-.67-.126-1.266.693-1.935.355.29-1.133,1.28-1.074,1.575-2.149.219-.74.854-.752,1.283-1.092q.2-.872.415-1.735c-.905-.47-1.872-.135-2.806-.288-.377-.293-.678-.839-1.122-.916A7.009,7.009,0,0,0,78.2,3.5a3.8,3.8,0,0,0,.864,1.476A15.726,15.726,0,0,0,74.483,6.7c0,.149,0,.449,0,.6.465.241,1.033.285,1.367.9.214.329.4.752.7.908.952-.1,1.819-.91,2.78-.861,0,.17,0,.511.006.681-.478.561-1.056.893-1.527,1.471.029.129.085.39.113.522a7.8,7.8,0,0,0,1.948-.127c-.613.344-1.243.611-1.855.96s-1.15-.423-1.755-.337c-.337.393-.518,1.1-.966,1.254-1.767.954-3.561,1.785-5.329,2.725a3.129,3.129,0,0,0-2.037,1.414c.009.517.012,1.036.018,1.554.933.252,1.871.461,2.805.725" transform="translate(-19.574 -0.978)" fill="#fff"/>
      <path id="Path_731" data-name="Path 731" d="M70.749,19.093a14.7,14.7,0,0,1,2.182-2.41,29.359,29.359,0,0,1,3.637-2.167c.593-.311,1.273.1,1.837-.4.228-.185.447-.4.676-.587-.085.42-.183.834-.282,1.248A2.217,2.217,0,0,0,77.318,16.4a3.884,3.884,0,0,0,1.3.643c-.005.149-.016.449-.023.6a17.95,17.95,0,0,1-5.29,3.712,8.476,8.476,0,0,0,.048,1.462A3.619,3.619,0,0,0,75.4,24.072a9.3,9.3,0,0,0,3.7-1.523,13.524,13.524,0,0,1-.3,3.432,1.6,1.6,0,0,0,2.266.972c.609-.247.443-1.313.4-2.024a18.867,18.867,0,0,1-.185-4.2,10.968,10.968,0,0,0,2.244-1.209,3.074,3.074,0,0,0,.429-1.721c-.3-.666-.895-.619-1.365-.728.058-.478.1-.963.118-1.45a2.652,2.652,0,0,0-1.346-.443c.488-1.92,1.859-2.6,2.811-3.855.01-.243.025-.734.035-.98-.309-.449-.617-1.054-1.093-1.028-.67-.126-1.266.693-1.935.355.29-1.133,1.28-1.074,1.575-2.149.219-.74.854-.752,1.283-1.092q.2-.872.415-1.735c-.905-.47-1.872-.135-2.806-.288-.377-.293-.678-.839-1.122-.916A7.009,7.009,0,0,0,78.2,3.5a3.8,3.8,0,0,0,.864,1.476A15.726,15.726,0,0,0,74.483,6.7c0,.149,0,.449,0,.6.465.241,1.033.285,1.367.9.214.329.4.752.7.908.952-.1,1.819-.91,2.78-.861,0,.17,0,.511.006.681-.478.561-1.056.893-1.527,1.471.029.129.085.39.113.522a7.8,7.8,0,0,0,1.948-.127c-.613.344-1.243.611-1.855.96s-1.15-.423-1.755-.337c-.337.393-.518,1.1-.966,1.254-1.767.954-3.561,1.785-5.329,2.725a3.129,3.129,0,0,0-2.037,1.414c.009.517.012,1.036.018,1.554C68.877,18.62,69.814,18.829,70.749,19.093Z" transform="translate(-19.574 -0.978)" fill="none" stroke="#fff" stroke-width="2"/>
      <path id="Path_732" data-name="Path 732" d="M93.535,12.867a3.141,3.141,0,0,0,2.41-1.339c1.244-.658,2.6-1.321,3.921-.831.134,1.128-.577,2.064-1.291,1.938-.887.047-2.024-.358-2.613.957-.287.787-.9.919-1.417,1.16-.016,1.118,0,2.237,0,3.353a11.5,11.5,0,0,1-.5,2.437,14.217,14.217,0,0,1-.219,3.177,18.9,18.9,0,0,1-.226,2.525c.468,1.776,1.8,2.674,3.009,2.464,1.172-1.066,2.605-1.624,3.482-3.315.457-.8.957-1.835,1.738-1.785,1.329.358,2.666,1.629,4.028.725a10.607,10.607,0,0,0-.028-1.95,6.469,6.469,0,0,0-2.637-1.318,4.966,4.966,0,0,0,1.029-2.058,3.317,3.317,0,0,0-.034-1.82c-1.39-.937-2.8.285-4.16.684-1.087.619-2.252.849-3.313,1.585-.006-.7-.008-1.406,0-2.108a5.212,5.212,0,0,1,3.754-1.4c.543-.332,1.021-.858,1.543-1.257l-.017-.828a2.229,2.229,0,0,0-1.629-.382c0-.147.007-.441.011-.587a17.359,17.359,0,0,1,1.682-1.245c.645-.757.482-2.123.428-3.2A2.4,2.4,0,0,0,100.7,7.6,24.433,24.433,0,0,0,94.511,9.25c-1.131.529-2.387.837-3.289,2.091a2.2,2.2,0,0,0,1.3.7c.411.015.647.614,1.011.822m7.934,5.473a2.431,2.431,0,0,1,1.149.159,3.229,3.229,0,0,1-1.918,2.38,20.031,20.031,0,0,1-2.549-.44,7.07,7.07,0,0,1,3.319-2.1m-1.9,4.339c-1.155,1.133-2.245,2.537-3.644,2.919.213-1.257.263-2.54.4-3.817a3.332,3.332,0,0,1,3.243.9" transform="translate(-26.287 -2.189)" fill="#fff"/>
      <path id="Path_733" data-name="Path 733" d="M93.535,12.867a3.141,3.141,0,0,0,2.41-1.339c1.244-.658,2.6-1.321,3.921-.831.134,1.128-.577,2.064-1.291,1.938-.887.047-2.024-.358-2.613.957-.287.787-.9.919-1.417,1.16-.016,1.118,0,2.237,0,3.353a11.5,11.5,0,0,1-.5,2.437,14.217,14.217,0,0,1-.219,3.177,18.9,18.9,0,0,1-.226,2.525c.468,1.776,1.8,2.674,3.009,2.464,1.172-1.066,2.605-1.624,3.482-3.315.457-.8.957-1.835,1.738-1.785,1.329.358,2.666,1.629,4.028.725a10.607,10.607,0,0,0-.028-1.95,6.469,6.469,0,0,0-2.637-1.318,4.966,4.966,0,0,0,1.029-2.058,3.317,3.317,0,0,0-.034-1.82c-1.39-.937-2.8.285-4.16.684-1.087.619-2.252.849-3.313,1.585-.006-.7-.008-1.406,0-2.108a5.212,5.212,0,0,1,3.754-1.4c.543-.332,1.021-.858,1.543-1.257l-.017-.828a2.229,2.229,0,0,0-1.629-.382c0-.147.007-.441.011-.587a17.359,17.359,0,0,1,1.682-1.245c.645-.757.482-2.123.428-3.2A2.4,2.4,0,0,0,100.7,7.6,24.433,24.433,0,0,0,94.511,9.25c-1.131.529-2.387.837-3.289,2.091a2.2,2.2,0,0,0,1.3.7C92.935,12.06,93.171,12.659,93.535,12.867Zm7.934,5.473a2.431,2.431,0,0,1,1.149.159,3.229,3.229,0,0,1-1.918,2.38,20.031,20.031,0,0,1-2.549-.44A7.07,7.07,0,0,1,101.469,18.34Zm-1.9,4.339c-1.155,1.133-2.245,2.537-3.644,2.919.213-1.257.263-2.54.4-3.817A3.332,3.332,0,0,1,99.566,22.679Z" transform="translate(-26.287 -2.189)" fill="none" stroke="#fff" stroke-width="2"/>
      <path id="Path_734" data-name="Path 734" d="M55.885,8.4c-1.006-.141-2.35-.76-3.037.749a5.411,5.411,0,0,0,2.7,2.155c.62.038.878-1.142,1.068-1.867-.178-.42-.339-1.063-.732-1.036" transform="translate(-15.229 -2.349)" fill="#fff"/>
      <path id="Path_735" data-name="Path 735" d="M55.885,8.4c-1.006-.141-2.35-.76-3.037.749a5.411,5.411,0,0,0,2.7,2.155c.62.038.878-1.142,1.068-1.867C56.44,9.013,56.279,8.37,55.885,8.4Z" transform="translate(-15.229 -2.349)" fill="none" stroke="#fff" stroke-width="2"/>
      <path id="Path_736" data-name="Path 736" d="M38.043,25.98c.1-1.4-.312-2.7-.268-4.1a9.376,9.376,0,0,1,0-4.181c-.058-1.979.651-3.7.971-5.558.194-1.216.972-1.861,1.325-2.945-.423-1.1-1.267-.7-1.957-.778a4.712,4.712,0,0,0-1.108,2.211c-.32,1.9-.429,3.89-.876,5.743-.289,1.1-.326,2.293-.52,3.432,0,1.841-.261,3.872.488,5.485.314,1.051,1.411,1.632,1.943.7" transform="translate(-10.25 -2.422)" fill="#fff"/>
      <path id="Path_737" data-name="Path 737" d="M38.043,25.98c.1-1.4-.312-2.7-.268-4.1a9.376,9.376,0,0,1,0-4.181c-.058-1.979.651-3.7.971-5.558.194-1.216.972-1.861,1.325-2.945-.423-1.1-1.267-.7-1.957-.778a4.712,4.712,0,0,0-1.108,2.211c-.32,1.9-.429,3.89-.876,5.743-.289,1.1-.326,2.293-.52,3.432,0,1.841-.261,3.872.488,5.485C36.414,26.335,37.511,26.916,38.043,25.98Z" transform="translate(-10.25 -2.422)" fill="none" stroke="#fff" stroke-width="2"/>
      <path id="Path_738" data-name="Path 738" d="M41.829,14.379c.93.405,1.666-.8,2.53-1.048C44,14.916,42.539,14.837,42.1,16.352a1.8,1.8,0,0,0,1.456,1.165,6.962,6.962,0,0,0-1.876,3.062,2.514,2.514,0,0,0,.791,2.094c1.225.308,2.331-.749,3.366-1.58.768-.528,1.548-1.028,2.34-1.468-.275,1.283-.469,2.818-1.315,3.535-1.266,1.365-2.879,1.345-4.309,2.028-.24.32-.616.937-.17,1.26a7.593,7.593,0,0,0,2.9-.13c1.4-.117,2.816.038,4.223-.056a1.3,1.3,0,0,0,.855-1.6,4.112,4.112,0,0,0-3.176-.252c.577-.6,1.256-.908,1.846-1.469.257-.167.531-.608.826-.335,1.029.652,2.1,1.7,3.257,1.133.086-1.721-1.023-2.5-1.8-3.35.5-1.251.924-2.578,1.487-3.776a8.476,8.476,0,0,0,.593-1.776c-.683-.57-1.555-.919-2.249-.2-.787.7-.794,2.225-1.214,3.318-.08-1.209-.031-2.425-.051-3.637-.342-.449-.682-.908-1-1.4a5.431,5.431,0,0,0,.313-2.4c-.757-1.054-1.73-2.17-2.821-1.562-.125.39-.135,1.051-.519,1.028a10.46,10.46,0,0,0-4.082,1.967,2.373,2.373,0,0,0,.054,2.434m3.371.182c.486-.863.955-1.961,1.711-2.281a4.951,4.951,0,0,1,.589,2.61c-.067.737.53,1.665.026,2.222a12.031,12.031,0,0,1-2.546,2.472,12.146,12.146,0,0,0,1.5-3.253c.071-.646.209-1.268.323-1.9-.536.012-1.069.106-1.6.132" transform="translate(-11.948 -2.53)" fill="#fff"/>
      <path id="Path_739" data-name="Path 739" d="M41.829,14.379c.93.405,1.666-.8,2.53-1.048C44,14.916,42.539,14.837,42.1,16.352a1.8,1.8,0,0,0,1.456,1.165,6.962,6.962,0,0,0-1.876,3.062,2.514,2.514,0,0,0,.791,2.094c1.225.308,2.331-.749,3.366-1.58.768-.528,1.548-1.028,2.34-1.468-.275,1.283-.469,2.818-1.315,3.535-1.266,1.365-2.879,1.345-4.309,2.028-.24.32-.616.937-.17,1.26a7.593,7.593,0,0,0,2.9-.13c1.4-.117,2.816.038,4.223-.056a1.3,1.3,0,0,0,.855-1.6,4.112,4.112,0,0,0-3.176-.252c.577-.6,1.256-.908,1.846-1.469.257-.167.531-.608.826-.335,1.029.652,2.1,1.7,3.257,1.133.086-1.721-1.023-2.5-1.8-3.35.5-1.251.924-2.578,1.487-3.776a8.476,8.476,0,0,0,.593-1.776c-.683-.57-1.555-.919-2.249-.2-.787.7-.794,2.225-1.214,3.318-.08-1.209-.031-2.425-.051-3.637-.342-.449-.682-.908-1-1.4a5.431,5.431,0,0,0,.313-2.4c-.757-1.054-1.73-2.17-2.821-1.562-.125.39-.135,1.051-.519,1.028a10.46,10.46,0,0,0-4.082,1.967A2.373,2.373,0,0,0,41.829,14.379Zm3.371.182c.486-.863.955-1.961,1.711-2.281a4.951,4.951,0,0,1,.589,2.61c-.067.737.53,1.665.026,2.222a12.031,12.031,0,0,1-2.546,2.472,12.146,12.146,0,0,0,1.5-3.253c.071-.646.209-1.268.323-1.9C46.268,14.441,45.734,14.535,45.2,14.561Z" transform="translate(-11.948 -2.53)" fill="none" stroke="#fff" stroke-width="2"/>
      <rect id="Rectangle_948" data-name="Rectangle 948" width="39.588" height="6.3" transform="translate(0.712 28.989)" fill="#7030a0"/>
      <rect id="Rectangle_949" data-name="Rectangle 949" width="39.588" height="6.3" transform="translate(40.13 28.989)" fill="#00b050"/>
      <path id="Path_740" data-name="Path 740" d="M8.716,45.007a1.449,1.449,0,0,1-.913,1.16,5.452,5.452,0,0,1-2.32.4A4.665,4.665,0,0,1,2.8,45.926a2.154,2.154,0,0,1-.913-1.883,2.186,2.186,0,0,1,.94-1.9,4.634,4.634,0,0,1,2.69-.663,5.317,5.317,0,0,1,2.263.4,1.36,1.36,0,0,1,.894,1.1H7.111a.7.7,0,0,0-.441-.566,2.4,2.4,0,0,0-1.09-.212,2.14,2.14,0,0,0-1.49.459A2.13,2.13,0,0,0,4.083,45.4a2.182,2.182,0,0,0,1.508.449,2.2,2.2,0,0,0,1.071-.231.8.8,0,0,0,.459-.611Z" transform="translate(-0.544 -11.953)" fill="#fff"/>
      <path id="Path_741" data-name="Path 741" d="M14.224,46.515V41.591h1.708v1.97h2.99v-1.97H20.57v4.924H18.922V44.362h-2.99v2.153Z" transform="translate(-4.099 -11.985)" fill="#fff"/>
      <rect id="Rectangle_950" data-name="Rectangle 950" width="1.686" height="4.924" transform="translate(18.809 29.605)" fill="#fff"/>
      <path id="Path_742" data-name="Path 742" d="M32.078,46.515V41.591h2.443l2.98,3.96v-3.96H39.02v4.924H36.674L33.6,42.439v4.077Z" transform="translate(-9.244 -11.985)" fill="#fff"/>
      <path id="Path_743" data-name="Path 743" d="M44.1,46.515l2.872-4.924h2l2.76,4.924H50l-.564-1.058H46.31l-.618,1.058Zm2.642-1.866h2.287l-1.09-2.086Z" transform="translate(-12.708 -11.985)" fill="#fff"/>
      <path id="Path_744" data-name="Path 744" d="M58.453,46.525V41.6H60.8a6.149,6.149,0,0,1,2.443.355A1.189,1.189,0,0,1,64,43.1a1.233,1.233,0,0,1-.7,1.14,4.385,4.385,0,0,1-2.067.385H60.058v1.9ZM60.058,43.8h.805a2.827,2.827,0,0,0,1.128-.16.548.548,0,0,0,.333-.531.542.542,0,0,0-.336-.526,2.862,2.862,0,0,0-1.125-.158h-.805Z" transform="translate(-16.844 -11.988)" fill="#fff"/>
      <path id="Path_745" data-name="Path 745" d="M68.927,46.525V41.6h3.291a5.11,5.11,0,0,1,2.029.3.985.985,0,0,1,.65.938.971.971,0,0,1-.365.811,2.528,2.528,0,0,1-1.17.408,1.964,1.964,0,0,1,.947.245,1.023,1.023,0,0,1,.394.683l.14.711a2.214,2.214,0,0,0,.161.5,1,1,0,0,0,.247.331H73.415a.846.846,0,0,1-.137-.237,1.71,1.71,0,0,1-.083-.364l-.112-.744c-.043-.3-.12-.482-.228-.545a2.058,2.058,0,0,0-.8-.093H70.591v1.983Zm1.664-2.785h1a3.705,3.705,0,0,0,1.288-.15.53.53,0,0,0,.349-.524.555.555,0,0,0-.33-.551,3.618,3.618,0,0,0-1.308-.154h-1Z" transform="translate(-19.862 -11.988)" fill="#fff"/>
      <path id="Path_746" data-name="Path 746" d="M80.282,46.526V41.6h5.251v.814H82v1.162h3.313v.8H82V45.7h3.656v.821Z" transform="translate(-23.135 -11.988)" fill="#fff"/>
      <path id="Path_747" data-name="Path 747" d="M90.266,44.892h1.658a.817.817,0,0,0,.39.738,2.222,2.222,0,0,0,1.172.247,2.344,2.344,0,0,0,1.024-.192c.263-.128.4-.29.4-.486q0-.463-1.864-.858l-.177-.037c-.04-.009-.093-.02-.162-.033a7.5,7.5,0,0,1-1.5-.428,1.313,1.313,0,0,1-.513-.392.859.859,0,0,1-.18-.529,1.181,1.181,0,0,1,.809-1.054,5.15,5.15,0,0,1,2.2-.389,4.395,4.395,0,0,1,2.02.378,1.161,1.161,0,0,1,.718,1.058v.027H94.787a.769.769,0,0,0-.406-.584,1.966,1.966,0,0,0-.969-.2,2.2,2.2,0,0,0-.948.17.513.513,0,0,0-.352.457q0,.447,1.954.841l.1.02a6.582,6.582,0,0,1,1.963.615.96.96,0,0,1,.469.848,1.2,1.2,0,0,1-.845,1.076,5.755,5.755,0,0,1-2.354.389,5.307,5.307,0,0,1-2.352-.4,1.294,1.294,0,0,1-.784-1.212Z" transform="translate(-26.012 -11.953)" fill="#fff"/>
      <path id="Path_748" data-name="Path 748" d="M101.591,44.892h1.659a.817.817,0,0,0,.389.738,2.222,2.222,0,0,0,1.172.247,2.341,2.341,0,0,0,1.023-.192q.4-.192.4-.486,0-.463-1.864-.858l-.177-.037c-.039-.009-.093-.02-.161-.033a7.465,7.465,0,0,1-1.5-.428,1.316,1.316,0,0,1-.513-.392.859.859,0,0,1-.18-.529,1.181,1.181,0,0,1,.809-1.054,5.155,5.155,0,0,1,2.2-.389,4.4,4.4,0,0,1,2.021.378,1.16,1.16,0,0,1,.717,1.058v.027h-1.471a.768.768,0,0,0-.406-.584,1.962,1.962,0,0,0-.969-.2,2.193,2.193,0,0,0-.947.17.513.513,0,0,0-.352.457q0,.447,1.954.841l.1.02a6.568,6.568,0,0,1,1.962.615.961.961,0,0,1,.47.848,1.2,1.2,0,0,1-.846,1.076,5.752,5.752,0,0,1-2.354.389,5.309,5.309,0,0,1-2.352-.4,1.3,1.3,0,0,1-.784-1.212Z" transform="translate(-29.275 -11.953)" fill="#fff"/>
      <path id="Path_749" data-name="Path 749" d="M8.306,1.785C9.4.2,11,1.372,12.142,2.193c.078.731-.434,1.184-.594,1.814-.145.708-.235,1.441-.378,2.149,1.565-.261,3.129-.557,4.7-.719a6.308,6.308,0,0,1,4.007,1.509,12.075,12.075,0,0,1-.043,2.032,21.9,21.9,0,0,1-3.348,3.136c-.353.405-1.062.337-1.147,1.089.682.822,1.6.388,2.395.49,0,.405-.006.81-.007,1.219a4.657,4.657,0,0,1-2.378,1.133c-1.1.343-2.209.543-3.307.875a2.463,2.463,0,0,0-1.264.9,8.287,8.287,0,0,0-.286,1.621c-.029,2.607.048,5.217-.035,7.824a38.9,38.9,0,0,0,.242,4.172c-.137,1.829-2.133,2.429-2.592.611a45.349,45.349,0,0,1-.056-4.894c-.023-2.945,0-5.893-.014-8.84A10.534,10.534,0,0,1,5.6,19.348a3.678,3.678,0,0,1-1.418-.825,4.428,4.428,0,0,1,.4-3c.972.9,2.181.382,3.2.047.072-1.9.012-3.82.02-5.728a6.1,6.1,0,0,0-3.056,1.548,3.372,3.372,0,0,0-.784,1.729c-.093,2.117.066,4.24-.041,6.357-.5.088-1.114.387-1.517-.232a13.3,13.3,0,0,1-1.13-3.951c-.037-1.154-.035-2.313.008-3.467.29-1.219.362-2.642,1-3.6.376-.549.79-1.263,1.372-1.083C4.259,7,4.658,7.766,5.032,8.35c.925-.414,1.852-.811,2.777-1.222a15.265,15.265,0,0,1,.5-5.344m2.407,7.088c.008,2.04,0,4.084,0,6.124.994-.281,1.666-1.429,2.434-2.311-.228-.478-.463-.954-.713-1.406a7.042,7.042,0,0,1,1.306.387A5.916,5.916,0,0,0,16.4,8.174a3.231,3.231,0,0,0-2.409-.344c-1.1.288-2.266.211-3.274,1.043m.24,6.679c1.189-.13,2.575-.109,3.52-1.368-.306-.338-.651-1.039-1.063-.579a23.351,23.351,0,0,0-2.457,1.947" transform="translate(-0.359 -0.288)" fill="#010101"/>
      <path id="Path_750" data-name="Path 750" d="M49.711,2.229c.928-.117,1.893.2,2.778-.367A2.62,2.62,0,0,1,55.8,2.69a28.465,28.465,0,0,1,.959,3.8c.184,1.169.9,1.959,1.035,3.148.036,2.041-.031,4.082.021,6.119a13.882,13.882,0,0,1,.1,5.115,11.321,11.321,0,0,1-.31,2.2c-.33.948-1.168,1.125-1.478,2.1-.229.575-.317,1.362-.808,1.562a1.456,1.456,0,0,1-1.431-.305,7.358,7.358,0,0,1-.5-2.043c-.215-.476-.506-.858-.745-1.3.718.07,1.564.658,2.192-.147a13.386,13.386,0,0,0,1.026-4.827c-.009-2.6.037-5.211-.021-7.812-.393-1.3-.878-2.533-1.327-3.791-.341-.972-.577-2.143-1.275-2.669-.325.27-.641.561-.977.8-1.174.567-2.412-.543-3.58.112A15.55,15.55,0,0,1,44.3,6.419,3.585,3.585,0,0,1,42.05,6.19c.011-.243.037-.737.048-.984,1.341-.678,2.553-1.9,3.949-2.352,1.209-.358,2.447-.361,3.664-.625" transform="translate(-12.117 -0.453)" fill="#010101"/>
      <path id="Path_751" data-name="Path 751" d="M78.2,3.5a7.009,7.009,0,0,1,2.323-.012c.443.077.744.623,1.122.916.934.153,1.9-.182,2.805.288-.143.576-.283,1.154-.414,1.735-.429.34-1.064.352-1.283,1.092-.295,1.075-1.285,1.016-1.575,2.15.671.337,1.265-.482,1.935-.356.475-.026.783.579,1.093,1.028-.01.246-.025.737-.035.981-.951,1.25-2.323,1.935-2.811,3.855a2.652,2.652,0,0,1,1.346.443c-.023.487-.06.972-.117,1.45.468.109,1.061.062,1.364.728a3.074,3.074,0,0,1-.429,1.721,10.99,10.99,0,0,1-2.244,1.21,18.947,18.947,0,0,0,.184,4.2c.044.711.209,1.777-.4,2.024A1.6,1.6,0,0,1,78.8,25.98a13.524,13.524,0,0,0,.3-3.432,9.31,9.31,0,0,1-3.7,1.523,3.618,3.618,0,0,1-2.048-1.256,8.622,8.622,0,0,1-.048-1.462,17.965,17.965,0,0,0,5.292-3.712l.023-.6a3.868,3.868,0,0,1-1.3-.643A2.215,2.215,0,0,1,78.8,14.78c.1-.414.2-.828.283-1.248-.229.191-.447.4-.676.587-.565.5-1.244.085-1.837.4a29.2,29.2,0,0,0-3.636,2.167,14.709,14.709,0,0,0-2.184,2.41c-.934-.264-1.871-.473-2.805-.725-.006-.518-.009-1.037-.018-1.554A3.128,3.128,0,0,1,69.962,15.4c1.769-.94,3.563-1.771,5.33-2.725.447-.149.627-.861.965-1.254.6-.085,1.149.684,1.755.337s1.242-.616,1.854-.96a7.762,7.762,0,0,1-1.948.127c-.027-.132-.083-.394-.112-.522.471-.579,1.049-.91,1.527-1.471,0-.17-.006-.511-.006-.681-.961-.05-1.829.758-2.78.861-.3-.156-.484-.579-.7-.908-.335-.616-.9-.661-1.367-.9,0-.149,0-.449,0-.6a15.71,15.71,0,0,1,4.581-1.727A3.811,3.811,0,0,1,78.2,3.5" transform="translate(-19.574 -0.978)" fill="#010101"/>
      <path id="Path_752" data-name="Path 752" d="M94.511,9.251A24.361,24.361,0,0,1,100.695,7.6a2.4,2.4,0,0,1,1.782.849c.055,1.08.217,2.445-.428,3.2a17.359,17.359,0,0,0-1.682,1.245c0,.147-.009.441-.011.587a2.232,2.232,0,0,1,1.629.382l.017.828c-.521.4-1,.925-1.542,1.257a5.219,5.219,0,0,0-3.755,1.4c-.006.7,0,1.407,0,2.108,1.061-.737,2.226-.966,3.313-1.586,1.364-.4,2.77-1.62,4.16-.684a3.317,3.317,0,0,1,.035,1.82,4.974,4.974,0,0,1-1.029,2.059,6.46,6.46,0,0,1,2.637,1.318,10.605,10.605,0,0,1,.029,1.95c-1.362.9-2.7-.367-4.028-.726-.78-.05-1.281.987-1.738,1.785-.876,1.691-2.31,2.249-3.482,3.315-1.206.211-2.541-.687-3.009-2.464a18.908,18.908,0,0,0,.226-2.525,14.167,14.167,0,0,0,.219-3.176,11.556,11.556,0,0,0,.5-2.437c0-1.115-.014-2.234,0-3.353.513-.241,1.129-.373,1.416-1.16.589-1.315,1.726-.91,2.614-.957.713.127,1.424-.81,1.291-1.938-1.325-.49-2.678.173-3.921.831a3.141,3.141,0,0,1-2.41,1.338c-.364-.209-.6-.807-1.012-.822a2.2,2.2,0,0,1-1.3-.7c.9-1.254,2.158-1.562,3.29-2.09m3.638,11.189a20.055,20.055,0,0,0,2.549.441,3.232,3.232,0,0,0,1.918-2.381,2.428,2.428,0,0,0-1.149-.159,7.07,7.07,0,0,0-3.319,2.1m-1.827,1.342c-.137,1.277-.188,2.56-.4,3.817,1.4-.382,2.489-1.785,3.644-2.919a3.334,3.334,0,0,0-3.243-.9" transform="translate(-26.287 -2.19)" fill="#010101"/>
      <path id="Path_753" data-name="Path 753" d="M52.847,9.146c.688-1.509,2.032-.89,3.037-.749.394-.026.555.616.733,1.036-.19.725-.448,1.906-1.068,1.867a5.412,5.412,0,0,1-2.7-2.155" transform="translate(-15.229 -2.349)" fill="#010101"/>
      <path id="Path_754" data-name="Path 754" d="M38.115,8.414c.69.077,1.535-.322,1.957.779-.352,1.083-1.131,1.729-1.325,2.944-.32,1.861-1.029,3.579-.97,5.558a9.366,9.366,0,0,0,0,4.181c-.045,1.4.368,2.707.267,4.1-.532.937-1.629.355-1.943-.7-.75-1.612-.486-3.644-.488-5.485.194-1.139.231-2.334.52-3.432.448-1.853.556-3.843.876-5.743a4.722,4.722,0,0,1,1.108-2.211" transform="translate(-10.25 -2.422)" fill="#010101"/>
      <path id="Path_755" data-name="Path 755" d="M46.375,8.95c1.091-.608,2.064.508,2.821,1.562a5.431,5.431,0,0,1-.313,2.4c.313.5.653.955,1,1.4.02,1.212-.029,2.428.051,3.637.42-1.093.427-2.622,1.214-3.318.695-.719,1.567-.37,2.249.2a8.476,8.476,0,0,1-.593,1.776c-.563,1.2-.984,2.525-1.487,3.776.776.846,1.885,1.629,1.8,3.35-1.161.564-2.229-.481-3.257-1.133-.295-.273-.569.167-.826.335-.591.561-1.27.869-1.846,1.469a4.112,4.112,0,0,1,3.176.252,1.3,1.3,0,0,1-.855,1.6c-1.407.094-2.818-.061-4.223.056a7.593,7.593,0,0,1-2.9.13c-.446-.323-.07-.94.17-1.26,1.43-.683,3.042-.663,4.309-2.028.846-.717,1.04-2.252,1.315-3.535-.792.44-1.572.94-2.34,1.468-1.035.831-2.141,1.888-3.366,1.58a2.514,2.514,0,0,1-.791-2.094,6.967,6.967,0,0,1,1.875-3.062A1.8,1.8,0,0,1,42.1,16.352c.443-1.515,1.9-1.436,2.262-3.021-.863.246-1.6,1.453-2.53,1.048a2.373,2.373,0,0,1-.054-2.434,10.46,10.46,0,0,1,4.082-1.967c.384.023.394-.638.519-1.028M45.2,14.561c.535-.026,1.068-.12,1.6-.132-.114.634-.252,1.257-.323,1.9a12.146,12.146,0,0,1-1.5,3.253,12.031,12.031,0,0,0,2.546-2.472c.5-.557-.093-1.486-.026-2.222a4.958,4.958,0,0,0-.589-2.61c-.755.32-1.224,1.418-1.711,2.281" transform="translate(-11.948 -2.53)" fill="#010101"/>
    </g>
  </g>
</svg>
