<?xml version="1.0" encoding="utf-8"?>
<!-- Generator: Adobe Illustrator 16.0.0, SVG Export Plug-In . SVG Version: 6.00 Build 0)  -->
<!DOCTYPE svg PUBLIC "-//W3C//DTD SVG 1.1//EN" "http://www.w3.org/Graphics/SVG/1.1/DTD/svg11.dtd">
<svg version="1.1" id="Layer_1" xmlns="http://www.w3.org/2000/svg" xmlns:xlink="http://www.w3.org/1999/xlink" x="0px" y="0px"
	 width="660.551px" height="149.005px" viewBox="0 0 660.551 149.005" enable-background="new 0 0 660.551 149.005"
	 xml:space="preserve">
<path fill="#292B6A" d="M0,24.17h14.729v6.745c2.519-2.771,5.318-4.839,8.396-6.203c3.078-1.368,6.435-2.051,10.07-2.051
	c3.669,0,6.982,0.9,9.935,2.697c2.951,1.799,5.327,4.424,7.127,7.877c2.339-3.453,5.209-6.078,8.612-7.877
	c3.4-1.797,7.117-2.697,11.149-2.697c4.174,0,7.846,0.97,11.014,2.914c3.168,1.94,5.444,4.477,6.831,7.605
	c1.386,3.131,2.079,8.221,2.079,15.269v34.423H75.103V53.09c0-6.653-0.827-11.159-2.48-13.514c-1.655-2.358-4.137-3.534-7.446-3.534
	c-2.518,0-4.775,0.719-6.772,2.157c-1.997,1.439-3.48,3.428-4.452,5.964c-0.97,2.535-1.457,6.607-1.457,12.217v26.492H37.659V54.44
	c0-5.252-0.388-9.055-1.162-11.412c-0.776-2.355-1.939-4.109-3.489-5.26c-1.549-1.152-3.425-1.727-5.625-1.727
	c-2.451,0-4.677,0.727-6.679,2.184c-2.001,1.458-3.497,3.498-4.488,6.125c-0.99,2.626-1.487,6.762-1.487,12.408v26.113H0V24.17z"/>
<path fill="#292B6A" d="M147.293,24.17h14.728v58.702h-14.728v-6.204c-2.874,2.735-5.759,4.702-8.65,5.909
	c-2.893,1.203-6.027,1.807-9.404,1.807c-7.58,0-14.138-2.939-19.67-8.824c-5.534-5.878-8.299-13.189-8.299-21.93
	c0-9.063,2.677-16.49,8.03-22.282s11.855-8.687,19.508-8.687c3.521,0,6.826,0.664,9.916,1.997c3.09,1.328,5.947,3.325,8.57,5.987
	V24.17z M131.809,36.257c-4.553,0-8.334,1.61-11.346,4.828c-3.011,3.221-4.517,7.347-4.517,12.384c0,5.071,1.532,9.243,4.597,12.518
	c3.065,3.272,6.838,4.909,11.32,4.909c4.626,0,8.46-1.611,11.507-4.827c3.047-3.222,4.572-7.437,4.572-12.653
	c0-5.107-1.525-9.245-4.572-12.41C140.323,37.84,136.469,36.257,131.809,36.257z"/>
<path fill="#292B6A" d="M175.295,1.511h14.729v81.361h-14.729V1.511z"/>
<path fill="#292B6A" d="M246.731,24.17h14.728v58.702h-14.728v-6.204c-2.877,2.735-5.761,4.702-8.65,5.909
	c-2.893,1.203-6.027,1.807-9.406,1.807c-7.579,0-14.135-2.939-19.668-8.824c-5.533-5.878-8.3-13.189-8.3-21.93
	c0-9.063,2.678-16.49,8.03-22.282c5.354-5.792,11.855-8.687,19.508-8.687c3.521,0,6.826,0.664,9.914,1.997
	c3.09,1.328,5.947,3.325,8.572,5.987V24.17z M231.245,36.257c-4.553,0-8.334,1.61-11.346,4.828
	c-3.013,3.221-4.517,7.347-4.517,12.384c0,5.071,1.53,9.243,4.597,12.518c3.065,3.272,6.838,4.909,11.32,4.909
	c4.623,0,8.459-1.611,11.507-4.827c3.046-3.222,4.57-7.437,4.57-12.653c0-5.107-1.524-9.245-4.57-12.41
	C239.758,37.84,235.907,36.257,231.245,36.257z"/>
<path fill="#292B6A" d="M269.836,24.17h15.053l15.248,36.833l16.824-36.833h15.095l-36.764,80.178H280.08l12.071-25.854
	L269.836,24.17z"/>
<path fill="#292B6A" d="M376.379,32.372l-9.118,9.117c-3.705-3.667-7.069-5.502-10.09-5.502c-1.653,0-2.949,0.351-3.883,1.053
	c-0.938,0.699-1.404,1.574-1.404,2.617c0,0.791,0.296,1.52,0.892,2.184c0.591,0.664,2.057,1.574,4.396,2.726l5.396,2.697
	c5.684,2.806,9.586,5.664,11.708,8.577c2.123,2.914,3.185,6.332,3.185,10.253c0,5.216-1.917,9.566-5.748,13.057
	c-3.83,3.488-8.966,5.233-15.402,5.233c-8.562,0-15.396-3.344-20.504-10.035l9.064-9.874c1.727,2.014,3.75,3.643,6.071,4.882
	c2.319,1.242,4.378,1.863,6.177,1.863c1.941,0,3.508-0.469,4.694-1.404s1.78-2.014,1.78-3.236c0-2.265-2.141-4.479-6.421-6.637
	l-4.964-2.482c-9.494-4.784-14.244-10.771-14.244-17.966c0-4.64,1.789-8.606,5.369-11.896c3.58-3.294,8.154-4.937,13.73-4.937
	c3.812,0,7.399,0.836,10.765,2.508C371.191,26.843,374.041,29.243,376.379,32.372z"/>
<path fill="#292B6A" d="M394.803,0c2.582,0,4.799,0.935,6.646,2.806c1.846,1.87,2.771,4.136,2.771,6.798
	c0,2.625-0.916,4.863-2.744,6.716c-1.829,1.854-4.017,2.778-6.562,2.778c-2.616,0-4.853-0.941-6.698-2.832
	c-1.847-1.889-2.77-4.18-2.77-6.881c0-2.586,0.913-4.801,2.744-6.633C390.017,0.917,392.222,0,394.803,0z M387.44,24.17h14.729
	v58.702H387.44V24.17z"/>
<path fill="#292B6A" d="M458.875,24.17h14.729v58.702h-14.729v-6.204c-2.876,2.735-5.758,4.702-8.649,5.909
	c-2.893,1.203-6.027,1.807-9.403,1.807c-7.581,0-14.139-2.939-19.671-8.824c-5.535-5.878-8.3-13.189-8.3-21.93
	c0-9.063,2.678-16.49,8.031-22.282c5.353-5.792,11.854-8.687,19.509-8.687c3.52,0,6.824,0.664,9.914,1.997
	c3.09,1.328,5.945,3.325,8.569,5.987V24.17z M443.392,36.257c-4.555,0-8.336,1.61-11.348,4.828
	c-3.011,3.221-4.518,7.347-4.518,12.384c0,5.071,1.53,9.243,4.597,12.518c3.067,3.272,6.838,4.909,11.319,4.909
	c4.625,0,8.461-1.611,11.507-4.827c3.048-3.222,4.572-7.437,4.572-12.653c0-5.107-1.524-9.245-4.572-12.41
	C451.904,37.84,448.05,36.257,443.392,36.257z"/>
<path fill="#F06625" d="M488.601,1.511h14.731v46.86L525.02,24.17h18.497l-25.285,28.136l28.311,30.566h-18.283l-24.927-27.053
	v27.053h-14.731V1.511z"/>
<path fill="#F06625" d="M558.338,0c2.582,0,4.796,0.935,6.641,2.806c1.851,1.87,2.771,4.136,2.771,6.798
	c0,2.625-0.913,4.863-2.742,6.716c-1.829,1.854-4.018,2.778-6.562,2.778c-2.62,0-4.854-0.941-6.7-2.832
	c-1.848-1.889-2.77-4.18-2.77-6.881c0-2.586,0.915-4.801,2.743-6.633C553.55,0.917,555.755,0,558.338,0z M550.972,24.17h14.729
	v58.702h-14.729V24.17z"/>
<path fill="#F06625" d="M579.083,24.17h14.729v6.019c3.339-2.818,6.365-4.775,9.076-5.875c2.712-1.102,5.485-1.652,8.325-1.652
	c5.817,0,10.757,2.032,14.815,6.096c3.413,3.453,5.116,8.562,5.116,15.324v38.791h-14.568V57.166c0-7.005-0.312-11.657-0.941-13.957
	c-0.626-2.302-1.722-4.051-3.283-5.253c-1.561-1.203-3.486-1.809-5.785-1.809c-2.979,0-5.534,0.999-7.671,2.992
	c-2.134,1.996-3.613,4.752-4.438,8.274c-0.434,1.832-0.646,5.802-0.646,11.906v23.552h-14.729V24.17z"/>
<path fill="#F06625" d="M651.138,0c2.58,0,4.796,0.935,6.645,2.806c1.846,1.87,2.769,4.136,2.769,6.798
	c0,2.625-0.913,4.863-2.744,6.716c-1.83,1.854-4.016,2.778-6.562,2.778c-2.617,0-4.853-0.941-6.699-2.832
	c-1.844-1.889-2.771-4.18-2.771-6.881c0-2.586,0.917-4.801,2.743-6.633C646.348,0.917,648.553,0,651.138,0z M643.772,24.17H658.5
	v58.702h-14.729V24.17z"/>
<g>
	<path fill="#231F20" d="M0.67,121.743h6.669v2.727c1.512-1.275,2.882-2.162,4.11-2.661c1.228-0.498,2.484-0.747,3.769-0.747
		c2.634,0,4.87,0.919,6.708,2.762c1.544,1.562,2.316,3.875,2.316,6.936v17.562h-6.596v-11.639c0-3.173-0.142-5.277-0.425-6.32
		c-0.285-1.039-0.781-1.831-1.487-2.378c-0.708-0.543-1.579-0.816-2.62-0.816c-1.348,0-2.506,0.452-3.472,1.352
		c-0.967,0.904-1.637,2.153-2.01,3.747c-0.196,0.829-0.293,2.629-0.293,5.393v10.662H0.67V121.743z"/>
	<path fill="#231F20" d="M57.317,136.961H35.896c0.309,1.89,1.136,3.394,2.479,4.509c1.343,1.114,3.057,1.672,5.142,1.672
		c2.492,0,4.634-0.87,6.424-2.611l5.619,2.638c-1.4,1.988-3.079,3.456-5.032,4.408c-1.955,0.952-4.275,1.429-6.963,1.429
		c-4.168,0-7.563-1.314-10.186-3.945c-2.622-2.629-3.933-5.923-3.933-9.881c0-4.055,1.307-7.42,3.921-10.099
		c2.613-2.68,5.891-4.019,9.832-4.019c4.186,0,7.589,1.339,10.211,4.019c2.621,2.679,3.933,6.216,3.933,10.613L57.317,136.961z
		 M50.649,131.71c-0.439-1.48-1.31-2.686-2.607-3.613c-1.296-0.929-2.8-1.394-4.513-1.394c-1.86,0-3.492,0.521-4.894,1.563
		c-0.881,0.65-1.697,1.8-2.448,3.443H50.649z"/>
	<path fill="#231F20" d="M59.772,121.743H66.3l5.344,15.122l5.75-15.122h3.992l5.647,14.95l5.351-14.95h6.569l-9.697,26.578H85.03
		l-5.667-15.145l-5.837,15.145h-4.178L59.772,121.743z"/>
	<path fill="#231F20" d="M118.997,125.458l-4.127,4.131c-1.677-1.662-3.2-2.496-4.567-2.496c-0.75,0-1.336,0.161-1.759,0.479
		c-0.423,0.316-0.635,0.713-0.635,1.185c0,0.357,0.134,0.688,0.403,0.989s0.933,0.711,1.992,1.232l2.441,1.222
		c2.573,1.272,4.34,2.567,5.302,3.884c0.96,1.319,1.441,2.864,1.441,4.644c0,2.359-0.867,4.331-2.602,5.909
		c-1.733,1.582-4.059,2.369-6.974,2.369c-3.876,0-6.97-1.514-9.282-4.541l4.104-4.474c0.781,0.913,1.698,1.649,2.748,2.212
		c1.05,0.561,1.982,0.843,2.796,0.843c0.879,0,1.588-0.21,2.126-0.634c0.537-0.424,0.806-0.913,0.806-1.467
		c0-1.025-0.968-2.029-2.906-3.004l-2.248-1.124c-4.299-2.166-6.449-4.878-6.449-8.136c0-2.101,0.81-3.895,2.431-5.384
		c1.62-1.493,3.692-2.235,6.216-2.235c1.726,0,3.351,0.378,4.874,1.135C116.648,122.954,117.938,124.04,118.997,125.458z"/>
	<path fill="#231F20" d="M158.35,121.743h6.668v26.578h-6.668v-2.809c-1.303,1.236-2.607,2.131-3.917,2.676
		c-1.308,0.543-2.729,0.816-4.257,0.816c-3.433,0-6.401-1.33-8.906-3.994c-2.504-2.66-3.756-5.972-3.756-9.928
		c0-4.105,1.211-7.469,3.634-10.089c2.426-2.622,5.369-3.933,8.831-3.933c1.596,0,3.092,0.299,4.492,0.902
		c1.396,0.602,2.691,1.508,3.879,2.712V121.743z M151.339,127.216c-2.06,0-3.772,0.73-5.138,2.186
		c-1.362,1.459-2.044,3.326-2.044,5.605c0,2.299,0.694,4.188,2.082,5.669c1.388,1.483,3.097,2.223,5.124,2.223
		c2.095,0,3.832-0.729,5.212-2.187c1.379-1.457,2.068-3.367,2.068-5.729c0-2.312-0.689-4.184-2.068-5.617
		C155.195,127.933,153.45,127.216,151.339,127.216z"/>
	<path fill="#231F20" d="M171.76,121.743h6.67v2.727c1.512-1.275,2.881-2.162,4.108-2.661c1.229-0.498,2.483-0.747,3.769-0.747
		c2.635,0,4.871,0.919,6.708,2.762c1.546,1.562,2.318,3.875,2.318,6.936v17.562h-6.597v-11.639c0-3.173-0.141-5.277-0.428-6.32
		c-0.283-1.039-0.777-1.831-1.485-2.378c-0.706-0.543-1.579-0.816-2.619-0.816c-1.348,0-2.505,0.452-3.472,1.352
		c-0.967,0.904-1.638,2.153-2.012,3.747c-0.193,0.829-0.291,2.629-0.291,5.393v10.662h-6.67V121.743z"/>
	<path fill="#231F20" d="M221.397,111.485h6.668v36.836h-6.668v-2.809c-1.301,1.236-2.607,2.131-3.916,2.676
		c-1.308,0.543-2.729,0.816-4.257,0.816c-3.433,0-6.403-1.33-8.907-3.994c-2.504-2.66-3.757-5.972-3.757-9.928
		c0-4.105,1.213-7.469,3.636-10.089c2.424-2.622,5.368-3.933,8.832-3.933c1.595,0,3.09,0.299,4.489,0.902
		c1.399,0.602,2.692,1.508,3.88,2.712V111.485z M214.387,127.216c-2.061,0-3.773,0.73-5.138,2.186
		c-1.363,1.459-2.044,3.326-2.044,5.605c0,2.299,0.691,4.188,2.082,5.669c1.387,1.483,3.096,2.223,5.123,2.223
		c2.094,0,3.83-0.729,5.211-2.187c1.379-1.457,2.068-3.367,2.068-5.729c0-2.312-0.689-4.184-2.068-5.617
		C218.241,127.933,216.497,127.216,214.387,127.216z"/>
	<path fill="#231F20" d="M245.958,121.743h6.795l6.715,15.682l6.699-15.682h6.76l-11.309,26.578h-4.326L245.958,121.743z"/>
	<path fill="#231F20" d="M279.423,110.8c1.171,0,2.173,0.426,3.011,1.271c0.836,0.845,1.253,1.873,1.253,3.077
		c0,1.188-0.414,2.204-1.242,3.042c-0.827,0.838-1.818,1.258-2.972,1.258c-1.185,0-2.197-0.428-3.033-1.281
		c-0.835-0.857-1.254-1.896-1.254-3.114c0-1.174,0.414-2.175,1.242-3.006C277.256,111.218,278.255,110.8,279.423,110.8z
		 M276.089,121.743h6.669v26.578h-6.669V121.743z"/>
	<path fill="#231F20" d="M315.442,136.961H294.02c0.31,1.89,1.135,3.394,2.479,4.509c1.344,1.114,3.059,1.672,5.143,1.672
		c2.492,0,4.633-0.87,6.425-2.611l5.617,2.638c-1.399,1.988-3.077,3.456-5.032,4.408c-1.953,0.952-4.273,1.429-6.961,1.429
		c-4.168,0-7.562-1.314-10.186-3.945c-2.623-2.629-3.934-5.923-3.934-9.881c0-4.055,1.308-7.42,3.92-10.099
		c2.615-2.68,5.891-4.019,9.833-4.019c4.186,0,7.588,1.339,10.21,4.019c2.622,2.679,3.932,6.216,3.932,10.613L315.442,136.961z
		 M308.774,131.71c-0.441-1.48-1.31-2.686-2.605-3.613c-1.299-0.929-2.802-1.394-4.516-1.394c-1.86,0-3.49,0.521-4.893,1.563
		c-0.881,0.65-1.695,1.8-2.446,3.443H308.774z"/>
	<path fill="#231F20" d="M317.898,121.743h6.526l5.346,15.122l5.749-15.122h3.993l5.647,14.95l5.35-14.95h6.571l-9.701,26.578
		h-4.225l-5.666-15.145l-5.84,15.145h-4.176L317.898,121.743z"/>
	<path fill="#231F20" d="M377.125,125.458l-4.13,4.131c-1.679-1.662-3.201-2.496-4.567-2.496c-0.749,0-1.337,0.161-1.759,0.479
		c-0.425,0.316-0.635,0.713-0.635,1.185c0,0.357,0.134,0.688,0.401,0.989s0.931,0.711,1.992,1.232l2.442,1.222
		c2.571,1.272,4.338,2.567,5.3,3.884c0.961,1.319,1.441,2.864,1.441,4.644c0,2.359-0.867,4.331-2.603,5.909
		c-1.735,1.582-4.059,2.369-6.974,2.369c-3.876,0-6.969-1.514-9.282-4.541l4.104-4.474c0.782,0.913,1.696,1.649,2.748,2.212
		c1.05,0.561,1.981,0.843,2.796,0.843c0.879,0,1.589-0.21,2.126-0.634c0.538-0.424,0.806-0.913,0.806-1.467
		c0-1.025-0.97-2.029-2.905-3.004l-2.249-1.124c-4.299-2.166-6.447-4.878-6.447-8.136c0-2.101,0.807-3.895,2.43-5.384
		c1.621-1.493,3.694-2.235,6.215-2.235c1.728,0,3.353,0.378,4.875,1.135C374.772,122.954,376.063,124.04,377.125,125.458z"/>
	<path fill="#231F20" d="M397.666,111.948h6.668v9.795h3.959v5.741h-3.959v20.837h-6.668v-20.837h-3.42v-5.741h3.42V111.948z"/>
	<path fill="#231F20" d="M411.883,111.485h6.619v12.945c1.301-1.123,2.612-1.967,3.933-2.526c1.318-0.563,2.655-0.843,4.006-0.843
		c2.639,0,4.861,0.91,6.669,2.735c1.547,1.579,2.319,3.901,2.319,6.962v17.562h-6.571v-11.65c0-3.079-0.145-5.163-0.438-6.254
		c-0.291-1.092-0.791-1.906-1.504-2.444c-0.707-0.537-1.583-0.805-2.624-0.805c-1.353,0-2.512,0.446-3.481,1.343
		c-0.969,0.895-1.64,2.117-2.016,3.664c-0.194,0.8-0.292,2.621-0.292,5.473v10.674h-6.619V111.485z"/>
	<path fill="#231F20" d="M461.494,121.743h6.671v26.578h-6.671v-2.809c-1.3,1.236-2.604,2.131-3.915,2.676
		c-1.309,0.543-2.729,0.816-4.258,0.816c-3.432,0-6.401-1.33-8.906-3.994c-2.504-2.66-3.756-5.972-3.756-9.928
		c0-4.105,1.211-7.469,3.636-10.089c2.422-2.622,5.367-3.933,8.832-3.933c1.592,0,3.088,0.299,4.488,0.902
		c1.397,0.602,2.691,1.508,3.879,2.712V121.743z M454.484,127.216c-2.06,0-3.773,0.73-5.136,2.186
		c-1.365,1.459-2.046,3.326-2.046,5.605c0,2.299,0.692,4.188,2.08,5.669c1.39,1.483,3.097,2.223,5.126,2.223
		c2.095,0,3.83-0.729,5.209-2.187c1.379-1.457,2.07-3.367,2.07-5.729c0-2.312-0.691-4.184-2.07-5.617
		S456.593,127.216,454.484,127.216z"/>
	<path fill="#231F20" d="M475.709,111.948h6.671v9.795h3.957v5.741h-3.957v20.837h-6.671v-20.837h-3.417v-5.741h3.417V111.948z"/>
	<path fill="#231F20" d="M503.851,121.743h6.669v3.057c1.14-1.256,2.406-2.193,3.801-2.811c1.393-0.617,2.914-0.928,4.562-0.928
		c1.66,0,3.159,0.406,4.494,1.221c1.34,0.814,2.411,2.004,3.228,3.565c1.062-1.562,2.359-2.751,3.898-3.565
		c1.541-0.814,3.226-1.221,5.049-1.221c1.892,0,3.553,0.439,4.988,1.318c1.433,0.878,2.464,2.027,3.09,3.443
		c0.629,1.417,0.942,3.723,0.942,6.914v15.584h-6.718v-13.484c0-3.011-0.376-5.053-1.124-6.117c-0.749-1.068-1.871-1.6-3.369-1.6
		c-1.14,0-2.161,0.324-3.066,0.977c-0.904,0.65-1.576,1.552-2.016,2.698c-0.441,1.151-0.658,2.994-0.658,5.534v11.992H520.9v-12.872
		c0-2.378-0.173-4.103-0.524-5.169c-0.351-1.064-0.877-1.861-1.58-2.381c-0.701-0.521-1.552-0.779-2.546-0.779
		c-1.111,0-2.119,0.328-3.023,0.986c-0.905,0.66-1.583,1.585-2.034,2.775c-0.446,1.188-0.672,3.061-0.672,5.619v11.82h-6.669
		V121.743z"/>
	<path fill="#231F20" d="M570.537,121.743h6.671v26.578h-6.671v-2.809c-1.299,1.236-2.605,2.131-3.914,2.676
		c-1.308,0.543-2.729,0.816-4.255,0.816c-3.434,0-6.403-1.33-8.909-3.994c-2.504-2.66-3.757-5.972-3.757-9.928
		c0-4.105,1.211-7.469,3.637-10.089c2.423-2.622,5.367-3.933,8.832-3.933c1.593,0,3.088,0.299,4.487,0.902
		c1.397,0.602,2.692,1.508,3.879,2.712V121.743z M563.53,127.216c-2.062,0-3.775,0.73-5.139,2.186
		c-1.364,1.459-2.045,3.326-2.045,5.605c0,2.299,0.692,4.188,2.082,5.669c1.389,1.483,3.095,2.223,5.126,2.223
		c2.091,0,3.828-0.729,5.207-2.187c1.378-1.457,2.069-3.367,2.069-5.729c0-2.312-0.691-4.184-2.069-5.617
		C567.382,127.933,565.637,127.216,563.53,127.216z"/>
	<path fill="#231F20" d="M584.756,111.948h6.669v9.795h3.956v5.741h-3.956v20.837h-6.669v-20.837h-3.42v-5.741h3.42V111.948z"/>
	<path fill="#231F20" d="M599.752,111.948h6.67v9.795h3.956v5.741h-3.956v20.837h-6.67v-20.837h-3.421v-5.741h3.421V111.948z"/>
	<path fill="#231F20" d="M640.575,136.961H619.15c0.309,1.89,1.134,3.394,2.479,4.509c1.345,1.114,3.059,1.672,5.144,1.672
		c2.49,0,4.633-0.87,6.423-2.611l5.619,2.638c-1.402,1.988-3.077,3.456-5.033,4.408c-1.953,0.952-4.274,1.429-6.963,1.429
		c-4.168,0-7.563-1.314-10.186-3.945c-2.621-2.629-3.932-5.923-3.932-9.881c0-4.055,1.307-7.42,3.921-10.099
		c2.614-2.68,5.891-4.019,9.833-4.019c4.184,0,7.589,1.339,10.21,4.019c2.621,2.679,3.932,6.216,3.932,10.613L640.575,136.961z
		 M633.905,131.71c-0.441-1.48-1.312-2.686-2.607-3.613c-1.296-0.929-2.802-1.394-4.514-1.394c-1.86,0-3.492,0.521-4.896,1.563
		c-0.877,0.65-1.695,1.8-2.446,3.443H633.905z"/>
	<path fill="#231F20" d="M644.407,121.743h5.718v3.35c0.615-1.32,1.439-2.322,2.466-3.007c1.027-0.682,2.151-1.024,3.371-1.024
		c0.863,0,1.766,0.227,2.71,0.682l-2.075,5.741c-0.783-0.392-1.425-0.587-1.93-0.587c-1.025,0-1.893,0.639-2.601,1.908
		c-0.71,1.269-1.062,3.758-1.062,7.473l0.022,1.295v10.748h-6.619V121.743z"/>
</g>
</svg>
