<?xml version="1.0" encoding="UTF-8"?>
<svg width="563px" height="125px" viewBox="0 0 563 125" version="1.1" xmlns="http://www.w3.org/2000/svg" xmlns:xlink="http://www.w3.org/1999/xlink">
    <!-- Generator: Sketch 49 (51002) - http://www.bohemiancoding.com/sketch -->
    <title>Artboard</title>
    <desc>Created with Sketch.</desc>
    <defs></defs>
    <g id="Artboard" stroke="none" stroke-width="1" fill="none" fill-rule="evenodd">
        <g id="Page-1">
            <path d="M0,26.602 L23.017,26.602 L23.017,36.806 C26.333,32.55 29.674,29.522 33.05,27.722 C36.432,25.926 40.503,25.021 45.271,25.021 C50.409,25.021 54.474,26.009 57.463,27.985 C60.455,29.964 62.9,32.901 64.803,36.806 C68.668,32.238 72.2,29.136 75.382,27.494 C78.567,25.842 82.499,25.021 87.18,25.021 C94.074,25.021 99.455,27.252 103.327,31.706 C107.192,36.16 109.131,43.13 109.131,52.608 L109.131,96.523 L84.421,96.523 L84.421,56.691 C84.421,53.536 83.862,51.182 82.732,49.644 C81.08,47.233 79.03,46.024 76.575,46.024 C73.676,46.024 71.347,47.168 69.571,49.446 C67.809,51.735 66.922,55.398 66.922,60.445 L66.922,96.523 L42.212,96.523 L42.212,58.004 C42.212,54.937 42.056,52.851 41.723,51.753 C41.2,49.996 40.293,48.581 38.994,47.503 C37.694,46.431 36.182,45.895 34.439,45.895 C31.597,45.895 29.265,47.052 27.445,49.381 C25.619,51.71 24.713,55.525 24.713,60.841 L24.713,96.523 L0,96.523 L0,26.602 Z" id="Fill-1" fill="#FF0000"></path>
            <path d="M155.292,63.3398 C151.9,64.6578 148.368,65.8238 144.69,66.8288 C139.685,68.2768 136.513,69.7088 135.187,71.1088 C133.811,72.5618 133.128,74.2108 133.128,76.0468 C133.128,78.1548 133.798,79.8798 135.15,81.2148 C136.503,82.5558 138.496,83.2238 141.118,83.2238 C143.867,83.2238 146.422,82.5008 148.775,81.0528 C151.144,79.6058 152.813,77.8388 153.809,75.7518 C154.792,73.6688 155.292,70.9618 155.292,67.6228 L155.292,63.3398 Z M133.914,49.2528 L110.357,46.5538 C111.244,42.0738 112.526,38.5518 114.199,35.9848 C115.875,33.4138 118.291,31.1888 121.436,29.3008 C123.695,27.9438 126.807,26.8868 130.762,26.1428 C134.717,25.3978 138.999,25.0208 143.6,25.0208 C150.987,25.0208 156.925,25.4738 161.41,26.3738 C165.888,27.2718 169.623,29.1448 172.611,31.9978 C174.71,33.9738 176.367,36.7728 177.576,40.3998 C178.789,44.0178 179.396,47.4698 179.396,50.7658 L179.396,81.6448 C179.396,84.9348 179.585,87.5188 179.968,89.3788 C180.352,91.2498 181.191,93.6238 182.48,96.5238 L159.347,96.5238 C158.417,94.7278 157.811,93.3548 157.534,92.4078 C157.248,91.4648 156.961,89.9868 156.688,87.9678 C153.453,91.3448 150.241,93.7608 147.056,95.2068 C142.694,97.1428 137.629,98.1008 131.855,98.1008 C124.185,98.1008 118.361,96.1768 114.379,92.3148 C110.404,88.4488 108.415,83.6888 108.415,78.0248 C108.415,72.7108 109.848,68.3448 112.716,64.9208 C115.579,61.5028 120.873,58.9518 128.586,57.2828 C137.826,55.2668 143.823,53.8538 146.569,53.0328 C149.314,52.2268 152.223,51.1588 155.292,49.8358 C155.292,46.5538 154.662,44.2498 153.41,42.9318 C152.16,41.6138 149.958,40.9558 146.812,40.9558 C142.774,40.9558 139.749,41.6578 137.732,43.0618 C136.153,44.1598 134.88,46.2168 133.914,49.2528 Z" id="Fill-2" fill="#FF0000"></path>
            <polygon id="Fill-3" fill="#FF0000" points="182.614 96.5234 207.327 96.5234 207.327 0.0004 182.614 0.0004"></polygon>
            <path d="M254.514,63.3398 C251.122,64.6578 247.587,65.8238 243.918,66.8288 C238.904,68.2768 235.738,69.7088 234.402,71.1088 C233.03,72.5618 232.35,74.2108 232.35,76.0468 C232.35,78.1548 233.023,79.8798 234.376,81.2148 C235.728,82.5558 237.714,83.2238 240.34,83.2238 C243.085,83.2238 245.638,82.5008 248.007,81.0528 C250.359,79.6058 252.038,77.8388 253.028,75.7518 C254.014,73.6688 254.514,70.9618 254.514,67.6228 L254.514,63.3398 Z M233.136,49.2528 L209.576,46.5538 C210.462,42.0738 211.748,38.5518 213.421,35.9848 C215.097,33.4138 217.506,31.1888 220.661,29.3008 C222.917,27.9438 226.026,26.8868 229.984,26.1428 C233.946,25.3978 238.221,25.0208 242.826,25.0208 C250.212,25.0208 256.146,25.4738 260.628,26.3738 C265.113,27.2718 268.845,29.1448 271.826,31.9978 C273.932,33.9738 275.585,36.7728 276.795,40.3998 C278.008,44.0178 278.614,47.4698 278.614,50.7658 L278.614,81.6448 C278.614,84.9348 278.804,87.5188 279.183,89.3788 C279.567,91.2498 280.407,93.6238 281.699,96.5238 L258.572,96.5238 C257.636,94.7278 257.033,93.3548 256.753,92.4078 C256.47,91.4648 256.186,89.9868 255.903,87.9678 C252.675,91.3448 249.463,93.7608 246.277,95.2068 C241.912,97.1428 236.845,98.1008 231.074,98.1008 C223.404,98.1008 217.582,96.1768 213.601,92.3148 C209.626,88.4488 207.64,83.6888 207.64,78.0248 C207.64,72.7108 209.073,68.3448 211.938,64.9208 C214.807,61.5028 220.092,58.9518 227.805,57.2828 C237.051,55.2668 243.045,53.8538 245.794,53.0328 C248.533,52.2268 251.445,51.1588 254.514,49.8358 C254.514,46.5538 253.881,44.2498 252.631,42.9318 C251.379,41.6138 249.186,40.9558 246.034,40.9558 C241.996,40.9558 238.971,41.6578 236.951,43.0618 C235.375,44.1598 234.102,46.2168 233.136,49.2528 Z" id="Fill-4" fill="#FF0000"></path>
            <path d="M273.902,26.602 L299.912,26.602 L313.17,73.152 L325.494,26.602 L349.784,26.602 L324.271,101.314 C321.363,109.838 318.397,115.589 315.369,118.574 C311.09,122.792 304.57,124.899 295.816,124.899 C292.268,124.899 286.78,124.373 279.347,123.32 L277.414,104.625 C280.959,105.855 284.915,106.469 289.272,106.469 C292.181,106.469 294.527,105.741 296.32,104.295 C298.116,102.839 299.638,100.246 300.894,96.515 L273.902,26.602 Z" id="Fill-5" fill="#FF0000"></path>
            <path d="M325.831,35.4936 L349.451,27.0516 L349.451,37.2616 C352.767,33.0006 356.108,29.9726 359.487,28.1716 C362.862,26.3756 366.937,25.4736 371.705,25.4736 C376.843,25.4736 380.908,26.4606 383.896,28.4346 C386.889,30.4116 389.331,33.3556 391.237,37.2616 C395.108,32.6946 398.634,29.5896 401.819,27.9436 C405.001,26.2986 408.936,25.4736 413.611,25.4736 C420.505,25.4736 425.886,27.7026 429.761,32.1596 C433.63,36.6076 435.561,43.5796 435.561,53.0606 L435.561,96.9766 L410.852,96.9766 L410.852,57.1426 C410.852,53.9856 410.289,51.6336 409.173,50.0976 C407.517,47.6846 405.465,46.4766 403.006,46.4766 C400.11,46.4766 397.777,47.6196 396.012,49.8976 C394.239,52.1826 393.356,55.8496 393.356,60.8906 L393.356,96.9766 L368.649,96.9766 L368.649,58.4606 C368.649,55.3866 368.483,53.3006 368.156,52.2016 C367.634,50.4486 366.724,49.0356 365.425,47.9546 C364.132,46.8856 362.609,46.3456 360.87,46.3456 C358.034,46.3456 355.702,47.5036 353.876,49.8286 C352.057,52.1616 351.147,55.9796 351.147,61.2926 L351.147,96.9766 L325.831,96.9766 L325.831,35.4936 Z" id="Fill-6" fill="#666666"></path>
            <path d="M481.723,63.7968 C478.334,65.1138 474.803,66.2748 471.127,67.2778 C466.119,68.7328 462.954,70.1588 461.619,71.5638 C460.245,73.0108 459.559,74.6528 459.559,76.4958 C459.559,78.6078 460.236,80.3308 461.584,81.6638 C462.941,83.0068 464.927,83.6748 467.552,83.6748 C470.301,83.6748 472.854,82.9518 475.219,81.5028 C477.575,80.0528 479.247,78.2908 480.241,76.1998 C481.227,74.1188 481.723,71.4068 481.723,68.0728 L481.723,63.7968 Z M460.345,49.7028 L436.785,47.0018 C437.675,42.5258 438.961,39.0048 440.633,36.4368 C442.31,33.8668 444.725,31.6378 447.87,29.7538 C450.133,28.3948 453.244,27.3398 457.197,26.5938 C461.152,25.8478 465.437,25.4738 470.035,25.4738 C477.428,25.4738 483.356,25.9258 487.837,26.8218 C492.326,27.7288 496.057,29.5988 499.046,32.4548 C501.142,34.4258 502.797,37.2298 504.014,40.8478 C505.223,44.4698 505.829,47.9228 505.829,51.2168 L505.829,82.0938 C505.829,85.3898 506.016,87.9678 506.403,89.8308 C506.783,91.6998 507.622,94.0808 508.909,96.9768 L485.782,96.9768 C484.855,95.1788 484.245,93.8078 483.965,92.8578 C483.682,91.9198 483.399,90.4338 483.119,88.4158 C479.884,91.7978 476.675,94.2108 473.49,95.6598 C469.125,97.5928 464.064,98.5578 458.289,98.5578 C450.619,98.5578 444.795,96.6258 440.817,92.7628 C436.835,88.9008 434.846,84.1368 434.846,78.4738 C434.846,73.1678 436.282,68.7978 439.151,65.3738 C442.016,61.9508 447.304,59.4068 455.018,57.7308 C464.26,55.7178 470.261,54.3018 473.003,53.4858 C475.745,52.6748 478.651,51.6118 481.723,50.2968 C481.723,47.0018 481.093,44.7028 479.847,43.3788 C478.591,42.0658 476.395,41.4038 473.246,41.4038 C469.208,41.4038 466.183,42.1108 464.163,43.5138 C462.584,44.6098 461.315,46.6748 460.345,49.7028 Z" id="Fill-7" fill="#666666"></path>
            <path d="M509.114,27.0514 L533.758,27.0514 L533.758,96.9764 L509.114,96.9764 L509.114,27.0514 Z M509.114,0.453 L533.758,0.453 L533.758,18.694 L509.114,18.694 L509.114,0.453 Z" id="Fill-8" fill="#666666"></path>
            <polygon id="Fill-9" fill="#666666" points="537.947 96.9764 562.653 96.9764 562.653 0.4534 537.947 0.4534"></polygon>
        </g>
    </g>
</svg>