<svg xmlns="http://www.w3.org/2000/svg" viewBox="0 0 224.64 79.23"><defs><style>.cls-1{fill:#163a6c;}.cls-2{fill:none;stroke:#163a6c;stroke-miterlimit:10;stroke-width:2px;}.cls-3{fill:#ef4044;}.cls-4{fill:#fff;}</style></defs><g id="Layer_2" data-name="Layer 2"><g id="Layer_1-2" data-name="Layer 1"><path class="cls-1" d="M10.15,12.75h4.49L24.73,32.14l10-19.39h4.53V40.34H35.72l0-22L25.87,37.42H23.55l-9.9-19.11v22h-3.5Z"></path><path class="cls-1" d="M68.63,40.34l-2.92-6.7H51.17l-2.88,6.7h-4L56.57,12.75h3.94L72.73,40.34Zm-16-10.13H64.26l-5.84-13.4Z"></path><path class="cls-1" d="M77.73,12.75h3.79V36.91H93.58v3.43H77.73Z"></path><path class="cls-1" d="M120.14,40.34l-2.92-6.7H102.68l-2.88,6.7h-4l12.26-27.59H112l12.22,27.59Zm-16-10.13h11.58l-5.83-13.4Z"></path><path class="cls-1" d="M148.16,12.75,137.83,30.88v9.46h-3.78V31L123.57,12.75h3.86l8.51,14.07,8.36-14.07Z"></path><path class="cls-1" d="M165.32,16.67a13.43,13.43,0,0,0-3.8-.61,7,7,0,0,0-3.84.93,2.86,2.86,0,0,0-1.44,2.54,3.36,3.36,0,0,0,.86,2.38,6.08,6.08,0,0,0,2.13,1.46c.84.36,2,.77,3.51,1.24a38.91,38.91,0,0,1,4.53,1.66,7.78,7.78,0,0,1,3,2.34,6.52,6.52,0,0,1,1.22,4.12,6.9,6.9,0,0,1-1.28,4.14,8.3,8.3,0,0,1-3.59,2.74,13.66,13.66,0,0,1-5.3,1,15.39,15.39,0,0,1-5.91-1.18,16.21,16.21,0,0,1-5-3.15L152.1,33a14.2,14.2,0,0,0,4.43,3A12.17,12.17,0,0,0,161.32,37a7.63,7.63,0,0,0,4.36-1.09A3.37,3.37,0,0,0,167.27,33a3.45,3.45,0,0,0-.86-2.41,6.18,6.18,0,0,0-2.19-1.5c-.88-.36-2.07-.77-3.57-1.22a36.7,36.7,0,0,1-4.49-1.61,7.74,7.74,0,0,1-2.94-2.33,6.41,6.41,0,0,1-1.2-4.06,6.53,6.53,0,0,1,1.22-3.9,7.72,7.72,0,0,1,3.43-2.6,13.49,13.49,0,0,1,5.12-.91,17,17,0,0,1,9.11,2.68l-1.58,3.39A16.15,16.15,0,0,0,165.32,16.67Z"></path><path class="cls-1" d="M178.46,12.75h3.79V40.34h-3.79Z"></path><path class="cls-1" d="M211.61,40.34l-2.92-6.7H194.15l-2.88,6.7h-4l12.26-27.59h3.94l12.22,27.59Zm-16-10.13h11.58l-5.83-13.4Z"></path><polyline class="cls-2" points="201.52 1 223.64 1 223.64 22.7"></polyline><polygon class="cls-3" points="207.77 79.23 19.25 79.23 28.25 45.36 216.77 45.36 207.77 79.23"></polygon><polygon class="cls-1" points="19.25 79.23 0 79.23 9 45.36 28.25 45.36 19.25 79.23"></polygon><path class="cls-4" d="M122.41,48.9h6.48l-5.34,26.72h-6.1l-8.88-16-3.24,16H98.81l5.34-26.72h6.1L119.17,65Z"></path><path class="cls-4" d="M153.5,50.1a11.85,11.85,0,0,1,4.67,4.48A12.48,12.48,0,0,1,159.85,61a14.34,14.34,0,0,1-2.14,7.63,15.31,15.31,0,0,1-5.79,5.47,16.47,16.47,0,0,1-8,2,13.93,13.93,0,0,1-6.8-1.64A11.7,11.7,0,0,1,132.46,70a12.73,12.73,0,0,1-1.66-6.5,14.15,14.15,0,0,1,2.13-7.62,15.17,15.17,0,0,1,5.78-5.4,16.52,16.52,0,0,1,8-2A14.07,14.07,0,0,1,153.5,50.1Zm-11.34,5.43a8.64,8.64,0,0,0-3,3.13A8.51,8.51,0,0,0,138,63a7.73,7.73,0,0,0,.88,3.66,6.88,6.88,0,0,0,2.4,2.59,6.28,6.28,0,0,0,3.36,1,7.41,7.41,0,0,0,4-1.16,8.51,8.51,0,0,0,3-3.15,8.83,8.83,0,0,0,1.1-4.34,7.78,7.78,0,0,0-.84-3.64,6.52,6.52,0,0,0-2.32-2.56,6.07,6.07,0,0,0-3.28-.93A7.75,7.75,0,0,0,142.16,55.53Z"></path><path class="cls-4" d="M198.42,48.9h7.17L192.36,75.62h-7.2l-1.79-18.26-8,18.26h-7.17L163.89,48.9h7.47l1.87,19.44,8.27-19.4,6.82,0,1.87,19.44Z"></path></g></g></svg>