<?xml version="1.0" encoding="UTF-8"?>
<svg id="Layer_2" data-name="Layer 2" xmlns="http://www.w3.org/2000/svg" xmlns:xlink="http://www.w3.org/1999/xlink" viewBox="0 0 365 66.22">
  <defs>
    <style>
      .cls-1 {
        fill: #231f20;
      }

      .cls-2 {
        fill: #fff;
      }

      .cls-3 {
        fill: #98c93e;
        filter: url(#drop-shadow-1);
      }

      .cls-4 {
        fill: #9aca3c;
      }

      .cls-5 {
        fill: #006950;
      }
    </style>
    <filter id="drop-shadow-1" x="0" y="11.43" width="70.81" height="31.92" filterUnits="userSpaceOnUse">
      <feOffset dx=".33" dy=".33"/>
      <feGaussianBlur result="blur" stdDeviation=".66"/>
      <feFlood flood-color="#231f20" flood-opacity=".85"/>
      <feComposite in2="blur" operator="in"/>
      <feComposite in="SourceGraphic"/>
    </filter>
  </defs>
  <g id="Layer_1-2" data-name="Layer 1">
    <g>
      <polygon class="cls-5" points="199.39 0 235.63 0 235.63 65.44 186.88 65.44 186.88 16.94 199.39 0"/>
      <path class="cls-4" d="M199.36,0s.3,1.36.73,3.38l-13.21,13.58v27.32s9.85-13.77,10.06-13.91c.17-.11,4.5-7.12,6.52-10.47.02.17.03.28.02.31l32.14,5.98V0h-36.27Z"/>
      <g>
        <path class="cls-2" d="M221.65,11.46c-4.27,0-7.62,1.13-9.97,3.27.07-.7.11-1.43.11-2.17C211.79,4.56,207.54,0,199.34,0s-12.46,4.56-12.46,12.55v4.85h7.9v-5.35c0-3.57,1.67-4.92,4.33-4.92s4.33,1.21,4.33,5.71c0,14.41-16.56,16.83-16.56,31.52v6.13h20.79v1.02c0,8.9,4.94,13.99,13.98,13.99s13.98-5.09,13.98-13.99v-26.06c0-8.9-4.94-13.99-13.98-13.99ZM195.24,43.36c-.08-.36-.08-.71-.08-1.07,0-5.54,7.59-10.01,12.52-17.16,0,.11,0,.21,0,.32v17.91h-12.44Z"/>
        <path class="cls-4" d="M216.88,52.07c0,3.97,1.84,5.48,4.77,5.48s4.77-1.51,4.77-5.48v-27.18c0-3.97-1.84-5.48-4.77-5.48s-4.77,1.51-4.77,5.48v27.18Z"/>
      </g>
      <g>
        <path class="cls-1" d="M249.6,64.21v-31.94h-8.05v-3.61h20.97v3.61h-8.05v31.94h-4.87Z"/>
        <path class="cls-1" d="M269.69,57.05l-1.69,7.16h-4.49l8.36-35.55h7.05l8.36,35.55h-4.87l-1.69-7.16h-11.05ZM270.32,53.65h9.74l-4.93-20.52-4.81,20.52Z"/>
        <path class="cls-1" d="M297.22,48.21v16h-4.87V28.66h4.87v16h10.74v-16h4.87v35.55h-4.87v-16h-10.74Z"/>
        <path class="cls-1" d="M323.68,55.83c0,3.2,1.56,5.13,5.12,5.13s5.06-1.93,5.06-5.13v-27.17h4.56v26.97c0,5.38-3.06,8.99-9.8,8.99s-9.74-3.61-9.74-8.99v-26.97h4.81v27.17Z"/>
        <path class="cls-1" d="M348.77,64.21h-4.37V28.66h6.18l10.11,25.7v-25.7h4.31v35.55h-5.06l-11.17-28.74v28.74Z"/>
      </g>
      <g>
        <g>
          <path class="cls-1" d="M92.86,8.69c-.22.45-.48.76-.78.95-.29.18-.65.27-1.05.27s-.86-.16-1.37-.47c-.51-.32-1.11-.67-1.8-1.05-.69-.39-1.5-.74-2.42-1.05-.93-.32-2.02-.47-3.28-.47-1.14,0-2.13.14-2.97.41-.84.27-1.56.65-2.14,1.14-.58.49-1.01,1.07-1.3,1.75-.28.68-.43,1.43-.43,2.24,0,1.04.29,1.9.87,2.59.58.69,1.35,1.28,2.3,1.77.96.49,2.04.93,3.26,1.31,1.22.39,2.47.8,3.74,1.24,1.27.44,2.52.95,3.74,1.53,1.22.58,2.31,1.31,3.26,2.2.96.88,1.72,1.97,2.3,3.25.58,1.28.87,2.84.87,4.67,0,1.99-.34,3.86-1.02,5.6-.68,1.74-1.68,3.25-2.99,4.54-1.31,1.29-2.91,2.31-4.8,3.05-1.89.74-4.06,1.11-6.5,1.11-1.4,0-2.79-.14-4.15-.41-1.36-.27-2.67-.67-3.92-1.17-1.25-.51-2.42-1.12-3.51-1.83-1.09-.71-2.06-1.5-2.91-2.38l2.38-3.94c.22-.28.49-.52.81-.72.31-.19.67-.29,1.05-.29.51,0,1.06.21,1.65.63.59.42,1.29.88,2.09,1.39.8.51,1.75.97,2.84,1.39,1.09.42,2.39.63,3.92.63,2.34,0,4.15-.55,5.43-1.66,1.28-1.11,1.92-2.7,1.92-4.77,0-1.16-.29-2.1-.87-2.83-.58-.73-1.35-1.35-2.3-1.85-.96-.5-2.04-.92-3.26-1.26-1.22-.35-2.46-.72-3.72-1.13-1.26-.41-2.5-.9-3.72-1.47-1.22-.57-2.31-1.31-3.26-2.23-.96-.91-1.72-2.06-2.3-3.43-.58-1.37-.87-3.06-.87-5.08,0-1.61.32-3.17.96-4.7.64-1.52,1.58-2.88,2.81-4.06,1.23-1.18,2.74-2.12,4.53-2.84,1.79-.71,3.83-1.07,6.13-1.07,2.6,0,5,.41,7.2,1.22,2.2.82,4.07,1.95,5.61,3.42l-2.01,3.87Z"/>
          <path class="cls-1" d="M111.8,45.27c-2.71,0-4.79-.77-6.25-2.3-1.47-1.54-2.2-3.66-2.2-6.36v-17.48h-3.17c-.41,0-.76-.13-1.05-.4-.3-.26-.44-.66-.44-1.19v-2.99l5.03-.83,1.59-8.54c.08-.41.27-.72.56-.95.29-.22.67-.34,1.11-.34h3.9v9.85h8.24v5.37h-8.24v16.96c0,.98.24,1.74.73,2.29s1.14.82,1.95.82c.47,0,.86-.06,1.18-.17.32-.11.59-.23.82-.35.23-.12.44-.24.62-.35.18-.11.37-.17.55-.17.22,0,.41.06.55.17.14.11.3.28.46.51l2.26,3.66c-1.1.92-2.36,1.61-3.78,2.07-1.42.47-2.9.7-4.42.7Z"/>
          <path class="cls-1" d="M149.66,44.78h-3.38c-.71,0-1.27-.11-1.68-.32-.41-.21-.71-.64-.91-1.29l-.67-2.23c-.79.71-1.57,1.34-2.33,1.88-.76.54-1.55.99-2.36,1.36-.81.37-1.68.64-2.59.82-.92.18-1.93.28-3.05.28-1.32,0-2.54-.18-3.66-.54-1.12-.36-2.08-.89-2.88-1.61-.8-.71-1.43-1.6-1.88-2.66-.45-1.06-.67-2.3-.67-3.7,0-1.18.31-2.35.93-3.51.62-1.15,1.65-2.19,3.1-3.12,1.44-.93,3.37-1.7,5.76-2.31,2.4-.61,5.38-.92,8.94-.92v-1.84c0-2.11-.44-3.67-1.33-4.69-.88-1.01-2.17-1.52-3.86-1.52-1.22,0-2.24.14-3.05.43-.81.28-1.52.61-2.12.96-.6.36-1.15.68-1.66.96-.51.29-1.07.43-1.68.43-.51,0-.95-.13-1.31-.4-.37-.26-.66-.59-.89-.97l-1.37-2.41c3.6-3.29,7.94-4.94,13.03-4.94,1.83,0,3.46.3,4.9.9,1.43.6,2.65,1.43,3.65,2.5.99,1.07,1.75,2.34,2.27,3.83.52,1.48.78,3.11.78,4.88v19.76ZM135.01,40.08c.77,0,1.48-.07,2.14-.21.65-.14,1.27-.35,1.84-.63.58-.28,1.14-.63,1.68-1.04.54-.41,1.08-.89,1.63-1.46v-5.24c-2.2,0-4.03.14-5.51.42-1.47.28-2.66.63-3.55,1.06-.9.43-1.53.93-1.91,1.5-.38.57-.57,1.2-.57,1.87,0,1.33.39,2.28,1.18,2.86.78.57,1.8.86,3.07.86Z"/>
          <path class="cls-1" d="M157.07,44.78V13.48h4.42c.77,0,1.31.14,1.62.43.31.28.51.77.61,1.46l.46,3.78c1.12-1.93,2.43-3.46,3.94-4.57,1.5-1.12,3.19-1.68,5.06-1.68,1.55,0,2.83.36,3.84,1.07l-.98,5.64c-.06.36-.19.63-.4.78-.2.15-.48.23-.82.23-.31,0-.72-.07-1.25-.21-.53-.14-1.23-.21-2.11-.21-1.57,0-2.91.43-4.03,1.3-1.12.86-2.07,2.13-2.84,3.8v19.49h-7.53Z"/>
          <path class="cls-3" d="M3.42,28.84s12.1-13.85,15.1-15.38c1.33-.68,2.26-.46,2.84.07.73.67,1.03,1.68.98,2.4-.09.82-1.86,8.71-1.48,9.41.91,1.75,6.11-2.75,10.6-8.05,4.01-4.75,6.5-6.04,7.95-5.86.18.03.33.06.49.1.44.13.73.52.97.96,1.47,2.78-1.14,14.14-1.49,15.69-.41,1.81-.7,2.63.88,1.19,1.58-1.44,8.68-8.4,10.86-8.53,6.37-.4,5.96,7.36,8.52,9.41,3.31,2.61,9.83-2.82,11.02-2.87,1.07-.05-3.85,5.27-5.58,6.63-1.76,1.38-6.39,4.71-9.31,1.95-1.61-1.5-3.96-5.02-6.54-6.55-.94-.55-2.06-.92-2.89-.7-1.05.28-8.21,7.55-10.11,9.71-1.92,2.2-3.28,4.41-4.78,4.78-1.51.42-3.02-.09-2.31-2.46,1.12-3.67,4.03-14.62,4.14-15.67.13-1.11-.95-2.63-3.28-1.11-2.31,1.48-12.73,12.87-15.27,15.45-1.91,1.94-2.66,2.91-3.32,3-1.1.15-2.92-.31-1.88-3.09,1.02-2.7,3.24-10.33,3.49-11.4.33-1.1-.62-3.62-2.65-2.06C8.33,27.34.6,34.47.05,33.88c-.55-.59,3.36-5.04,3.36-5.04Z"/>
        </g>
        <g>
          <path class="cls-1" d="M19.73,62.33c0,.66.1,2.06.1,2.53h-1.17c-.02-.66-.04-1.4-.08-1.58h-.06c-.47.99-1.62,1.81-3.08,1.81-2.8,0-3.43-1.91-3.43-3.87v-5.36h1.17v5.3c0,1.46.41,2.88,2.26,2.88,1.73,0,3.12-1.21,3.12-3.68v-4.5h1.17v6.47Z"/>
          <path class="cls-1" d="M25.86,58.4c0-.66-.1-2.07-.1-2.53h1.17c.02.66.04,1.4.08,1.58.58-1.05,1.52-1.81,2.86-1.81.23,0,.45.04.68.1l-.14,1.15c-.18-.06-.33-.08-.45-.08-2.03,0-2.94,1.4-2.94,3.16v4.9h-1.17v-6.46Z"/>
          <path class="cls-1" d="M35.01,50.14h1.17v7.3h.04c.72-1.25,2.26-1.81,3.6-1.81,2.76,0,4.73,1.99,4.73,4.73s-1.97,4.73-4.73,4.73c-1.34,0-2.88-.56-3.6-1.81h-.04v1.58h-1.17v-14.72ZM39.82,64.04c2.2,0,3.56-1.66,3.56-3.68s-1.36-3.68-3.56-3.68-3.76,1.65-3.76,3.68,1.64,3.68,3.76,3.68Z"/>
          <path class="cls-1" d="M57.07,61.08c0,1.75.04,2.75.18,3.78h-1.09c-.08-.45-.12-.95-.12-1.46h-.04c-.66,1.15-1.64,1.69-3.15,1.69s-3.17-.76-3.17-2.67c0-2.75,3.21-3.02,4.98-3.02h1.36v-.55c0-1.56-1.09-2.18-2.53-2.18-1.05,0-1.95.33-2.75,1.01l-.68-.8c.86-.82,2.26-1.27,3.43-1.27,2.18,0,3.58.97,3.58,3.25v2.2ZM54.74,60.34c-1.95,0-3.89.48-3.89,2.02,0,1.11,1.07,1.68,2.05,1.68,2.49,0,3.13-1.6,3.13-3.1v-.6h-1.29Z"/>
          <path class="cls-1" d="M63.11,58.4c0-.66-.1-2.07-.1-2.53h1.17c.02.66.04,1.4.08,1.58h.06c.47-.99,1.62-1.81,3.08-1.81,2.8,0,3.43,1.91,3.43,3.87v5.35h-1.17v-5.3c0-1.46-.41-2.88-2.26-2.88-1.73,0-3.12,1.21-3.12,3.68v4.5h-1.17v-6.46Z"/>
          <path class="cls-1" d="M79.79,64.35c.53,0,.93.41.93.93s-.41.93-.93.93-.93-.41-.93-.93.41-.93.93-.93Z"/>
          <path class="cls-1" d="M83.57,55.86h1.32l3,7.73,2.92-7.73h1.19l-3.54,9h-1.21l-3.68-9Z"/>
          <path class="cls-1" d="M104.72,63.17c-.92,1.36-2.3,1.93-3.89,1.93-2.75,0-4.56-1.97-4.56-4.75s1.87-4.71,4.5-4.71c2.76,0,4.23,2.12,4.23,4.21v.82h-7.56c0,.98.68,3.39,3.41,3.39,1.19,0,2.43-.62,3.02-1.6l.86.72ZM103.82,59.6c0-1.6-1.38-2.92-3.12-2.92-2.55,0-3.27,2.45-3.27,2.92h6.39Z"/>
          <path class="cls-1" d="M110.52,58.4c0-.66-.1-2.07-.1-2.53h1.17c.02.66.04,1.4.08,1.58.58-1.05,1.52-1.81,2.86-1.81.23,0,.45.04.68.1l-.14,1.15c-.18-.06-.33-.08-.45-.08-2.02,0-2.94,1.4-2.94,3.16v4.9h-1.17v-6.46Z"/>
          <path class="cls-1" d="M119.94,62.56c.49.96,1.56,1.48,2.61,1.48s2.06-.62,2.06-1.66c0-2.47-5.34-.74-5.34-4.17,0-1.75,1.6-2.59,3.08-2.59s2.59.54,3.18,1.69l-1.05.62c-.45-.82-1.07-1.26-2.12-1.26-.84,0-1.91.51-1.91,1.44,0,2.43,5.34.54,5.34,4.19,0,1.85-1.54,2.78-3.25,2.78-1.54,0-2.92-.58-3.62-1.83l1.03-.7Z"/>
          <path class="cls-1" d="M138.13,61.08c0,1.75.04,2.75.18,3.78h-1.09c-.08-.45-.12-.95-.12-1.46h-.04c-.66,1.15-1.64,1.69-3.15,1.69s-3.17-.76-3.17-2.67c0-2.75,3.21-3.02,4.99-3.02h1.36v-.55c0-1.56-1.09-2.18-2.53-2.18-1.05,0-1.95.33-2.74,1.01l-.68-.8c.86-.82,2.26-1.27,3.43-1.27,2.18,0,3.58.97,3.58,3.25v2.2ZM135.79,60.34c-1.95,0-3.89.48-3.89,2.02,0,1.11,1.07,1.68,2.04,1.68,2.49,0,3.14-1.6,3.14-3.1v-.6h-1.29Z"/>
          <path class="cls-1" d="M148.57,56.91h-2.57v5.86c0,.8.47,1.27,1.25,1.27.45,0,.92-.14,1.32-.31l.1,1.05c-.43.16-1.07.31-1.52.31-1.68,0-2.32-1.03-2.32-2.32v-5.86h-1.95v-1.05h1.95v-2.59h1.17v2.59h2.57v1.05Z"/>
          <path class="cls-1" d="M154.35,51.42c.49,0,.88.39.88.88s-.39.88-.88.88-.88-.39-.88-.88.39-.88.88-.88ZM153.76,55.86h1.17v9h-1.17v-9Z"/>
          <path class="cls-1" d="M161.36,50.14h1.17v14.72h-1.17v-14.72Z"/>
        </g>
      </g>
    </g>
  </g>
</svg>