<?xml version="1.0" encoding="utf-8"?>
<!-- Generator: Adobe Illustrator 27.3.1, SVG Export Plug-In . SVG Version: 6.00 Build 0)  -->
<svg version="1.1" id="Layer_1" xmlns="http://www.w3.org/2000/svg" xmlns:xlink="http://www.w3.org/1999/xlink" x="0px" y="0px"
	 viewBox="0 0 200 67" style="enable-background:new 0 0 200 67;" xml:space="preserve">
<style type="text/css">
	.st0{opacity:0.6;}
	.st1{fill:#FFFFFF;}
	.st2{fill:#DA2128;}
</style>
<g class="st0">
	<g>
		<path class="st1" d="M55.4,10c0.5,0,1,0.2,1.6,0.7c0.6,0.4,1,0.8,1.5,1.2c1,0.9,1.2,2,0.6,2.9c-0.2,0.4-0.4,0.6-0.7,0.6
			c-0.2,0-0.4-0.1-0.7-0.2c-0.1-0.1-0.3-0.1-0.4-0.1c-0.3,0-0.4,0.3-0.6,0.4c-0.9,1-1.7,2.1-2.5,3.2c-1.6,2.4-3.2,4.6-4.7,7.1
			c-3.7,6-7.1,12.3-10.1,18.8c-0.5,1.1-1.2,2.1-1.4,3.4c1.3-1,2.4-2.2,3.4-3.3c2.5-2.9,5.2-5.7,8.1-8.3c0.9-0.9,1.7-1.8,2.5-2.8
			c0.5-0.6,1-0.8,1.6-0.8c0.3,0,0.7,0.1,1.1,0.3c2.7,1.2,3.3,2.1,2.1,4.8c-0.4,1-1,2-1.5,2.9c-1.5,2.6-3.1,5.3-4.7,7.9
			c-0.6,1-1.2,2.1-1.5,3.3c-0.1,0.2-0.2,0.6-0.2,0.9c-0.1,0.2,0.1,0.4,0.2,0.4c0.1,0,0.1,0,0.2-0.1c0.3-0.1,0.6-0.2,0.8-0.4
			c2.1-1.3,4.1-2.9,6.1-4.4c1-0.8,1.9-1.5,2.9-2.4c0.3-0.3,0.6-0.6,1-0.6c0.1,0,0.2,0,0.3,0c0.3,0,0.6,0.1,0.7,0.4
			c0.1,0.3-0.2,0.5-0.3,0.7c-1.5,1.3-2.9,2.9-4.5,4.1c-1.8,1.4-3.6,2.9-5.6,4.1c-0.6,0.3-1.1,0.4-1.7,0.4c-0.4,0-0.8-0.1-1.2-0.2
			c-0.4-0.1-0.4-0.1-0.8-0.3c-0.9-0.4-1.7-0.7-2-1.7c-0.5-1.1-0.6-2.3-0.3-3.6c0.6-2.9,2-5.6,3.6-8.1c0.3-0.6,0.8-1,1-1.7
			c-0.9,0.3-1.5,1-2.1,1.6c-2.8,2.6-5.2,5.6-7.6,8.5c-1.1,1.4-2.2,3-3.3,4.4c-0.4,0.6-0.6,0.8-1,0.8c-0.2,0-0.5-0.1-1-0.3
			c-0.5-0.2-0.9-0.2-1.4-0.4c-1-0.3-1.5-0.8-1.7-1.7c-0.1-0.8-0.1-1.6,0-2.4c0.3-2.2,0.9-4.4,1.6-6.5c1.4-4.1,3.3-7.9,5.5-11.6
			c2.8-4.6,5.6-9.2,8.7-13.5c2-2.8,4.1-5.3,6.7-7.6C54.4,10.3,54.9,10,55.4,10 M55.4,8.5c-1.1,0-2,0.6-2.7,1.3
			c-2.4,2.2-4.7,4.8-6.9,7.9c-3.2,4.4-6,9.1-8.7,13.6c-2.5,4.4-4.3,8.1-5.6,11.9c-0.8,2.4-1.4,4.6-1.7,6.8l0,0l0,0
			c-0.1,0.9-0.1,1.8,0,2.7l0,0.1l0,0.1c0.4,1.8,1.7,2.4,2.7,2.8c0.3,0.1,0.6,0.2,0.8,0.3c0.2,0.1,0.4,0.1,0.6,0.2
			c0.6,0.2,1,0.4,1.5,0.4c1.1,0,1.7-0.7,2.2-1.4c0.6-0.8,1.2-1.5,1.7-2.3c0.5-0.7,1.1-1.4,1.6-2.1l0.8-0.9c0.8-1,1.7-2,2.5-2.9
			c-0.3,0.8-0.5,1.6-0.6,2.4c-0.3,1.6-0.2,3.1,0.4,4.4c0.5,1.5,1.6,2,2.6,2.4l0.2,0.1c0.3,0.2,0.5,0.2,0.7,0.3l0.2,0.1
			c0.6,0.2,1.2,0.3,1.7,0.3c0.8,0,1.5-0.2,2.3-0.6l0,0l0,0c1.4-0.8,2.7-1.9,3.9-2.8c0.6-0.5,1.2-0.9,1.8-1.4
			c1.1-0.9,2.1-1.8,3.1-2.7c0.5-0.5,1-1,1.6-1.5l0.1-0.1l0.1-0.2l0,0c0.2-0.2,0.7-0.9,0.5-1.9c-0.2-0.7-0.8-1.4-2-1.5
			c-0.1,0-0.3,0-0.4,0c-1,0-1.7,0.6-2.1,1c-0.6,0.6-1.2,1-1.9,1.6c-0.3,0.2-0.6,0.5-0.9,0.8c-1.3,1-2.6,2.1-3.9,3
			c0.1-0.2,0.2-0.3,0.3-0.5l0.1-0.3c1.5-2.5,3.1-5.1,4.7-7.9c0.6-1,1.2-2,1.6-3.1c1.6-3.8,0.1-5.4-2.9-6.8c-0.6-0.3-1.2-0.4-1.7-0.4
			c-1,0-1.9,0.4-2.7,1.3l0,0l0,0c-0.7,0.9-1.6,1.8-2.4,2.6c-1.9,1.7-3.7,3.5-5.6,5.5c2.3-4.7,5-9.5,7.9-14.2c1-1.7,2.1-3.2,3.2-4.9
			c0.5-0.7,1-1.4,1.5-2.2c0.7-0.9,1.4-1.8,2.2-2.7c0.2,0.1,0.5,0.1,0.7,0.1c1.2,0,1.8-1,2-1.4c0.9-1.6,0.6-3.5-1-4.8l-0.1-0.1
			c-0.5-0.4-1-0.8-1.5-1.2C57.3,9,56.4,8.5,55.4,8.5L55.4,8.5z"/>
	</g>
	<g>
		<path class="st1" d="M70.5,31.3c0.8,0,1.7,0.3,2.5,0.8c0.9,0.6,1.7,1.2,2.4,2c1,1.1,1.5,2.5,0.8,4c-1,2.2-2.1,4.4-3.8,6.1
			c-1.4,1.4-3,2.2-5,2.2c-0.1,0-0.2,0-0.3,0c-1,0-1.8-0.2-2.6-0.5c-0.2-0.1-0.4-0.2-0.5-0.2c0,0,0,0,0,0c-0.2,0.1-0.2,0.3-0.4,0.5
			c-0.6,1.6-1,3.3-0.6,5c0.3,1,0.7,1.4,1.7,1.4c0.1,0,0.2,0,0.3,0c0.9,0,1.8-0.2,2.7-0.5c3.4-1,6.7-2.5,9.7-4.4c0.7-0.4,1.3-1,2-1.5
			c0.2-0.2,0.4-0.4,0.6-0.5c0.1-0.1,0.2-0.1,0.3-0.1c0.2,0,0.4,0.1,0.5,0.3c0.2,0.3,0.1,0.5-0.1,0.8c-0.6,0.7-1.7,1.6-2.4,2.2
			c-3.6,2.5-7.1,4-11.3,5.3c-0.6,0.1-1.1,0.2-1.5,0.2c-0.8,0-1.6-0.2-2.5-0.7c-0.2-0.1-0.4-0.2-0.6-0.3c-2.1-1-2.9-2.5-3.2-4.5
			c-0.4-2.1-0.1-4.1,0.4-6.1c1.2-4.2,3.5-7.5,7.1-10c0.7-0.4,1.4-0.8,2.2-1C69.4,31.4,70,31.3,70.5,31.3 M72.3,36.5
			c-2.5,0.4-7.1,5.6-7.6,7.9c0.2,0.1,0.3,0.1,0.5,0.1c0.2,0,0.4-0.1,0.6-0.2c0.6-0.2,1.1-0.7,1.5-1.1c1.8-1.7,3.2-3.6,4.4-5.6
			C71.9,37.3,72.2,37,72.3,36.5 M70.5,29.8L70.5,29.8c-0.7,0-1.4,0.1-2.2,0.4c-0.9,0.3-1.7,0.7-2.4,1.1l-0.1,0l-0.1,0.1
			c-3.9,2.6-6.4,6.2-7.8,10.8l0,0l0,0c-0.4,1.8-0.9,4.3-0.4,6.7c0.4,2.6,1.7,4.4,4,5.5c0.2,0.1,0.4,0.2,0.6,0.3
			c1.2,0.6,2.2,0.9,3.3,0.9c0.6,0,1.2-0.1,1.9-0.3l0,0l0,0c4.6-1.4,8.2-3.1,11.7-5.5c0.9-0.6,2.1-1.6,2.8-2.5
			c0.9-1.2,0.5-2.1,0.1-2.6L82,44.9l-0.1-0.1c-0.6-0.6-1.2-0.7-1.6-0.7c-0.3,0-0.6,0.1-0.9,0.2c-0.5,0.2-0.9,0.5-1.1,0.8
			c-0.6,0.5-1.1,1-1.7,1.3l0,0l0,0c-2.8,1.8-5.8,3.2-9.3,4.3c-0.7,0.2-1.6,0.4-2.3,0.4H65l-0.1,0c-0.1,0-0.2,0-0.2,0
			c-0.1,0-0.1,0-0.1,0c0,0,0-0.1-0.1-0.2c-0.2-1.1-0.1-2.3,0.2-3.3c0.8,0.2,1.6,0.3,2.4,0.3c0.1,0,0.2,0,0.3,0c2.3,0,4.2-0.9,6-2.7
			c1.6-1.7,2.9-3.8,4.1-6.6c0.6-1.3,0.9-3.3-1-5.6c-0.8-0.9-1.7-1.6-2.7-2.3C72.7,30.2,71.7,29.8,70.5,29.8L70.5,29.8z"/>
	</g>
	<g>
		<path class="st1" d="M71.4,2.6c1.8,0,3.6,0.1,5.3,0.2c1.4,0.1,2.9,0.2,4.2,0.6c1.5,0.5,2.3,1.5,2.5,3C83.8,8,83,9,81.9,10
			c-0.2,0.2-0.3,0.3-0.5,0.3c-0.2,0-0.4-0.2-0.5-0.6c-0.1-0.4-0.1-0.6-0.2-0.9c-0.1-0.5-0.1-0.9,0.2-1.4c0.3-0.6,0.2-0.6-0.4-0.8
			c-0.9-0.1-1.7-0.2-2.6-0.2c-0.9-0.1-1.9-0.1-2.8-0.1c-3,0-5.8,0.3-8.9,0.5c-1.5,0.2-3.8,0.4-4.9,0.5c-3,0.4-6,0.6-9,0.9
			c-1.4,0.2-2.9,0.4-4.4,0.6c-0.4,0.1-0.7,0.1-0.9,0.5c-1.1,2.2-2.3,3.8-4,6.2c-0.7,1-4.9,7.2-5.2,7.7c-4,6.3-8.1,13-11.8,20.1
			c-2.7,5.1-6.8,11.9-9.2,17.2c-0.4,0.8-0.7,1.4-0.9,2.1c-0.3,0.7-0.3,1.2-0.1,1.5c0.3,0.5,0,1-0.7,1c-0.1,0-0.2,0-0.2,0
			c-0.7-0.1-1.3-0.2-2.1-0.4c-0.6-0.2-0.9-0.6-1-1.2c0-0.6,0.1-1.3,0.3-2c0.4-1.1,0.8-2.6,1.3-3.9C21.4,36.7,32.6,18.4,39,10.4
			c-6.5,1-12.9,1.5-19.5,1.9l-4,0.2c-1.4,0-2.9,0.1-4.3,0.1c-1.1,0-2.2,0-3.2-0.1c-1.3-0.1-3-0.1-3.9-1.2C3.9,10.7,3,9.6,3,9
			c0.1-0.6,0.5-0.9,1-1.1c0.9-0.4,1.8-0.6,2.8-0.6c1.7,0,3.4,0.2,5.2,0.7c0.4,0.1,0.8,0.2,1.3,0.2c0.2,0,0.3,0,0.5,0
			c4.5-0.4,9.1-1,13.6-1.7c2.1-0.3,4.2-0.6,6.3-0.8c5.9-0.8,11.7-1.6,17.6-2c3.2-0.2,6.4-0.6,9.5-0.7C64.2,2.8,67.8,2.6,71.4,2.6
			 M71.4,1.1c-3.6,0-7.3,0.2-10.9,0.4c-1.6,0.1-3.2,0.2-4.8,0.4C54.1,2,52.5,2.1,51,2.2c-5.8,0.4-11.6,1.2-17.2,1.9l-0.5,0.1
			l-0.5,0.1C30.9,4.5,28.9,4.7,27,5c-5.4,0.9-9.6,1.4-13.5,1.7l0,0l0,0c-0.1,0-0.2,0-0.3,0c-0.3,0-0.5,0-0.8-0.1
			c-1.7-0.5-3.4-0.8-5.6-0.8c-1.2,0-2.4,0.2-3.4,0.7l0,0l0,0c-1,0.5-1.6,1.3-1.8,2.2l0,0.1V9c0,0.8,0.4,1.6,1.4,3
			c1.2,1.6,3.3,1.8,4.7,1.8l0.2,0c1,0.1,2,0.1,3.3,0.1c0.7,0,1.5,0,2.2,0c0.7,0,1.4,0,2.1,0h0l0,0l4-0.2c4.9-0.3,10.4-0.7,16-1.4
			c-7,9.7-16.7,26.7-23.4,44.7c-0.4,1-0.8,2.2-1.1,3.2c-0.1,0.3-0.2,0.5-0.2,0.8c-0.3,0.9-0.3,1.7-0.3,2.4l0,0.1l0,0.1
			c0.1,1.2,0.8,2.2,2.1,2.5c0.8,0.2,1.5,0.4,2.3,0.5c0.2,0,0.3,0,0.4,0c0.9,0,1.6-0.4,2-1c0.4-0.6,0.4-1.4,0.1-2.1
			c0-0.1,0-0.2,0.1-0.4l0.1-0.3c0.2-0.5,0.4-1.1,0.8-1.7l0,0l0,0c1.6-3.5,3.9-7.6,6.1-11.5c1.1-2,2.2-3.9,3.1-5.6
			c3.2-6,6.8-12.2,11.8-20l0,0l0,0c0.3-0.5,4.4-6.6,5.1-7.6l0.1-0.1c1.6-2.2,2.7-3.8,3.8-5.9c1.3-0.2,2.8-0.5,4.2-0.6
			c1.2-0.1,2.4-0.2,3.5-0.3C58,9.2,59.8,9,61.6,8.8c0.6-0.1,1.6-0.2,2.7-0.3c0.8-0.1,1.5-0.2,2.2-0.2l0.8-0.1c2.7-0.2,5.3-0.4,8-0.4
			c0.9,0,1.8,0,2.7,0.1l0,0h0c0.4,0,0.8,0,1.2,0.1c0,0.4,0,0.8,0.1,1.2c0,0.1,0,0.2,0.1,0.3c0,0.2,0.1,0.4,0.2,0.6
			c0.3,1.2,1.2,1.7,1.9,1.7c0.4,0,0.9-0.1,1.5-0.7c0.8-0.7,2.5-2.3,1.9-4.9c-0.3-2.1-1.6-3.6-3.6-4.2c-1.3-0.4-2.7-0.6-4.6-0.7
			C75.1,1.1,73.3,1.1,71.4,1.1L71.4,1.1z"/>
	</g>
</g>
<g>
	<g>
		<path class="st2" d="M114.3,36.8c0-12.4-14.2-12.7-14.2-19.4c0-3,2.3-5.6,8.2-5.6c2.2,0,4.9,0.5,7.2,1.3l2.1-10.4
			c-2.9-0.5-5.8-0.8-9-0.8c-14.2,0-21.1,8.3-21.1,18.2c0,12.3,14.2,12.1,14.2,18.7c0,3.9-3,6-8.7,6c-2.7,0-5.5-0.6-8-1.4v11.3
			c2.2,0.3,4.8,0.5,7.3,0.5C105.2,55.4,114.3,47.1,114.3,36.8"/>
		<path class="st2" d="M138.1,27.2h-7.5l-2.7,14.5c-0.7,3.4-0.1,4.4,2.4,4.4c1.6,0,2.9-0.2,4.2-0.5l-1.1,8.6c-2.6,0.6-5.5,1-7.7,1
			c-7.9,0-10.3-3.7-8.6-12.6l2.9-15.4h-5.3l1.7-8.4h5.2l1.1-5.8l11.1-2.6l-1.6,8.4h7.6L138.1,27.2z"/>
		<path class="st2" d="M157.7,26.6c-6.7,0-10.2,8.7-10.2,15.3c0,2.7,0.6,3.9,2.1,3.9c4,0,9.8-10.1,11.1-16.9l0.4-1.9
			C160.1,26.8,159.1,26.6,157.7,26.6 M166.7,54.5h-10.5c0.6-2.6,1.5-5.5,2.9-9.3h-0.1c-3.1,5.2-7.7,10.1-13.9,10.1
			c-5.7,0-8.7-3.7-8.7-11.3c0-13.7,7.5-26,23.3-26c4.4,0,9.2,0.4,13.6,1.2C170.6,33,168.3,45,166.7,54.5"/>
		<path class="st2" d="M194.7,28.6c-4.4-1.6-10.5,5-12.9,18.4l-1.4,7.5h-10.8l3.6-18.7c0.9-4.4,2.4-12.7,3-17h10.3
			c-0.5,2.5-1.3,5.3-2.7,9.2h0.1c3.6-6.8,7.2-10.8,12.9-10L194.7,28.6z"/>
	</g>
	<g>
		<path d="M49.5,39.7c-0.9,0.3-1.5,1-2.1,1.6c-2.8,2.6-5.2,5.6-7.6,8.5c-1.1,1.4-2.2,3-3.3,4.4c-0.7,0.9-0.8,0.9-2,0.5
			c-0.5-0.2-0.9-0.2-1.4-0.4c-1-0.3-1.5-0.8-1.7-1.7c-0.1-0.8-0.1-1.6,0-2.4c0.3-2.2,0.9-4.4,1.6-6.5c1.4-4.1,3.3-7.9,5.5-11.6
			c2.8-4.6,5.6-9.2,8.7-13.5c2-2.8,4.1-5.3,6.7-7.6c1.3-1.1,2-1.2,3.3-0.2c0.6,0.4,1,0.8,1.5,1.2c1,0.9,1.2,2,0.6,2.9
			c-0.4,0.7-0.6,0.8-1.3,0.4c-0.6-0.3-0.7,0.1-1,0.3c-0.9,1-1.7,2.1-2.5,3.2c-1.6,2.4-3.2,4.6-4.7,7.1c-3.7,6-7.1,12.3-10.1,18.8
			c-0.5,1.1-1.2,2.1-1.4,3.4c1.3-1,2.4-2.2,3.4-3.3c2.5-2.9,5.2-5.7,8.1-8.3c0.9-0.9,1.7-1.8,2.5-2.8c0.8-0.9,1.6-1,2.7-0.6
			c2.7,1.2,3.3,2.1,2.1,4.8c-0.4,1-1,2-1.5,2.9c-1.5,2.6-3.1,5.3-4.7,7.9c-0.6,1-1.2,2.1-1.5,3.3c-0.1,0.2-0.2,0.6-0.2,0.9
			c-0.1,0.3,0.2,0.5,0.5,0.3c0.3-0.1,0.6-0.2,0.8-0.4c2.1-1.3,4.1-2.9,6.1-4.4c1-0.8,1.9-1.5,2.9-2.4c0.3-0.3,0.7-0.7,1.3-0.6
			c0.3,0,0.6,0.1,0.7,0.4c0.1,0.3-0.2,0.5-0.3,0.7c-1.5,1.3-2.9,2.9-4.5,4.1c-1.8,1.4-3.6,2.9-5.6,4.1c-1,0.5-1.8,0.6-2.9,0.2
			c-0.4-0.1-0.4-0.1-0.8-0.3c-0.9-0.4-1.7-0.7-2-1.7c-0.5-1.1-0.6-2.3-0.3-3.6c0.6-2.9,2-5.6,3.6-8.1C48.9,40.9,49.4,40.4,49.5,39.7
			z"/>
		<path d="M67.2,46.4c-1,0-1.8-0.2-2.6-0.5c-0.3-0.1-0.5-0.3-0.6-0.2c-0.2,0.1-0.2,0.3-0.4,0.5c-0.6,1.6-1,3.3-0.6,5
			c0.3,1.1,0.8,1.4,2,1.3c0.9,0,1.8-0.2,2.7-0.5c3.4-1,6.7-2.5,9.7-4.4c0.7-0.4,1.3-1,2-1.5c0.2-0.2,0.4-0.4,0.6-0.5
			c0.3-0.2,0.6-0.1,0.8,0.2c0.2,0.3,0.1,0.5-0.1,0.8c-0.6,0.7-1.7,1.6-2.4,2.2c-3.6,2.5-7.1,4-11.3,5.3c-1.5,0.4-2.5,0.3-4.1-0.5
			c-0.2-0.1-0.4-0.2-0.6-0.3c-2.1-1-2.9-2.5-3.2-4.5c-0.4-2.1-0.1-4.1,0.4-6.1c1.2-4.2,3.5-7.5,7.1-10c0.7-0.4,1.4-0.8,2.2-1
			c1.5-0.6,2.8-0.4,4.2,0.5c0.9,0.6,1.7,1.2,2.4,2c1,1.1,1.5,2.5,0.8,4c-1,2.2-2.1,4.4-3.8,6.1C70.9,45.7,69.2,46.5,67.2,46.4z
			 M64.6,44.4c0.4,0.2,0.6,0.2,1.1,0c0.6-0.2,1.1-0.7,1.5-1.1c1.8-1.7,3.2-3.6,4.4-5.6c0.2-0.3,0.5-0.6,0.6-1.1
			C69.7,36.9,65.2,42.1,64.6,44.4z"/>
		<path d="M13.6,57.6C21.4,36.7,32.6,18.4,39,10.4c-6.5,1-12.9,1.5-19.5,1.9l-4,0.2c-2.5,0-5.1,0.2-7.5-0.1c-1.3-0.1-3-0.1-3.9-1.2
			C3.9,10.7,3,9.6,3,9c0.1-0.6,0.5-0.9,1-1.1c0.9-0.4,1.8-0.6,2.8-0.6c1.7,0,3.4,0.2,5.2,0.7c0.6,0.2,1.1,0.2,1.7,0.2
			c4.5-0.4,9.1-1,13.6-1.7c2.1-0.3,4.2-0.6,6.3-0.8c5.9-0.8,11.7-1.6,17.6-2c3.2-0.2,6.4-0.6,9.5-0.7C66,2.7,71.4,2.3,76.7,2.7
			c1.4,0.1,2.9,0.2,4.2,0.6c1.5,0.5,2.3,1.5,2.5,3C83.8,8,83,9,81.9,10c-0.5,0.5-0.8,0.2-1-0.3c-0.1-0.4-0.1-0.6-0.2-0.9
			c-0.1-0.5-0.1-0.9,0.2-1.4c0.3-0.6,0.2-0.6-0.4-0.8c-0.9-0.1-1.7-0.2-2.6-0.2c-4-0.2-7.7,0.1-11.7,0.4c-1.5,0.2-3.8,0.4-4.9,0.5
			c-3,0.4-6,0.6-9,0.9c-1.4,0.2-2.9,0.4-4.4,0.6c-0.4,0.1-0.7,0.1-0.9,0.5c-1.1,2.2-2.3,3.8-4,6.2c-0.7,1-4.9,7.2-5.2,7.7
			c-4,6.3-8.1,13-11.8,20.1c-2.7,5.1-6.8,11.9-9.2,17.2c-0.4,0.8-0.7,1.4-0.9,2.1c-0.3,0.7-0.3,1.2-0.1,1.5c0.3,0.6,0,1.1-0.9,1
			c-0.7-0.1-1.3-0.2-2.1-0.4c-0.6-0.2-0.9-0.6-1-1.2c0-0.6,0.1-1.3,0.3-2C12.6,60.3,13,58.8,13.6,57.6z"/>
	</g>
</g>
</svg>
